<?xml version="1.0" encoding="UTF-8" standalone="no"?>
<svg
   version="1.1"
   width="1024"
   height="1024"
   id="svg8"
   sodipodi:docname="N3D_BW.svg"
   inkscape:version="1.3.2 (091e20e, 2023-11-25, custom)"
   xmlns:inkscape="http://www.inkscape.org/namespaces/inkscape"
   xmlns:sodipodi="http://sodipodi.sourceforge.net/DTD/sodipodi-0.dtd"
   xmlns="http://www.w3.org/2000/svg"
   xmlns:svg="http://www.w3.org/2000/svg">
  <defs
     id="defs8" />
  <sodipodi:namedview
     id="namedview8"
     pagecolor="#ffffff"
     bordercolor="#000000"
     borderopacity="0.25"
     inkscape:showpageshadow="2"
     inkscape:pageopacity="0.0"
     inkscape:pagecheckerboard="0"
     inkscape:deskcolor="#d1d1d1"
     inkscape:zoom="0.75878906"
     inkscape:cx="512"
     inkscape:cy="512"
     inkscape:window-width="1920"
     inkscape:window-height="991"
     inkscape:window-x="-9"
     inkscape:window-y="951"
     inkscape:window-maximized="1"
     inkscape:current-layer="svg8" />
  <path
     d="M0 0 C1.23838531 0.65764359 2.46616537 1.33557664 3.68359375 2.03125 C5.0691374 2.77303245 6.45589877 3.512544 7.84375 4.25 C8.54773926 4.63027344 9.25172852 5.01054688 9.97705078 5.40234375 C13.4658319 7.23929705 17.04197844 8.87938219 20.62109375 10.53125 C31.77527119 15.73788837 42.75636254 21.24545934 53.62109375 27.03125 C64.39111036 32.7640705 75.28912455 38.19043818 86.30229282 43.44097519 C100.87382437 50.39400551 115.3307017 57.5688451 129.76438642 64.80219936 C133.0658847 66.45615684 136.36857952 68.10772197 139.67112732 69.75958252 C145.89942119 72.87526424 152.12669718 75.99297445 158.3535766 79.1114819 C165.39491895 82.63776068 172.43740771 86.16174697 179.47999489 89.68553877 C189.31563655 94.60688125 199.15087239 99.529033 208.98521233 104.45297623 C212.37184133 106.14860032 215.75856675 107.84403172 219.14530945 109.53942871 C222.83221954 111.38511399 226.51877707 113.23149907 230.20491028 115.07873535 C231.64815648 115.80152637 233.09140847 116.52430584 234.53466797 117.24707031 C235.46289541 117.71267931 235.46289541 117.71267931 236.40987492 118.18769455 C240.79811909 120.38428589 245.22303235 122.48655979 249.68359375 124.53125 C255.74194914 127.34577805 261.6573871 130.35302487 267.53198242 133.53125 C277.39864488 138.86218911 287.46257836 143.78342459 297.62109375 148.53125 C307.91918695 153.34492258 318.10287086 158.35876946 328.11938477 163.73583984 C336.33734314 168.14661395 344.6752477 172.23463039 353.10400391 176.22705078 C363.29678624 181.06387629 373.37624118 186.11859571 383.453125 191.19140625 C386.50355284 192.7233195 389.56112694 194.24040474 392.61987305 195.75561523 C395.13805849 197.0066216 397.64968665 198.27024311 400.15869141 199.53955078 C401.55270413 200.24401454 402.94839047 200.94517079 404.34521484 201.64404297 C406.65196542 202.80251847 408.94966342 203.97747021 411.24609375 205.15625 C411.94532959 205.50453857 412.64456543 205.85282715 413.36499023 206.21166992 C419.21863324 209.2523852 424.01926106 212.40019318 426.27148438 218.80029297 C429.49958672 232.9761148 426.51743641 249.4380833 425.49609375 263.78125 C425.31933514 266.32174901 425.14299761 268.86227735 424.96704102 271.40283203 C424.36187313 280.11302762 423.74206695 288.82216922 423.12109375 297.53125 C423.00156416 299.20886213 422.88203703 300.88647444 422.76251221 302.56408691 C421.66623969 317.94638096 420.56695781 333.32846076 419.46254635 348.71017265 C418.1179478 367.43944189 416.78104461 386.16852687 415.55859375 404.90625 C414.18545025 425.93079476 412.67616293 446.94528555 411.16772461 467.96044922 C410.9477223 471.02571388 410.72775607 474.09098112 410.5078125 477.15625 C410.45223112 477.93071598 410.39664974 478.70518196 410.33938408 479.50311661 C409.43145922 492.15774176 408.53318647 504.81303232 407.640625 517.46875 C407.54719975 518.793409 407.54719975 518.793409 407.45188713 520.1448288 C406.88097171 528.24125081 406.3107229 536.33771976 405.74069214 544.4342041 C404.4618603 562.59706465 403.18064437 580.75971776 401.87260437 598.92050171 C401.70026426 601.31360714 401.5281406 603.70672804 401.3560791 606.09985352 C400.8780509 612.74692712 400.39954371 619.39396037 399.91640472 626.04066467 C399.67586234 629.355129 399.43743731 632.66974275 399.19921875 635.984375 C399.10781616 637.25152344 399.01641357 638.51867187 398.92224121 639.82421875 C398.43486378 646.69783807 397.99402896 653.57126492 397.60742188 660.45117188 C397.56496212 661.19562435 397.52250237 661.94007683 397.47875595 662.70708847 C397.27485377 666.28686111 397.07743719 669.86672292 396.89337158 673.4475708 C395.66402917 695.42228106 395.66402917 695.42228106 390.12109375 700.53125 C387.67578125 702.3046875 387.67578125 702.3046875 384.99609375 703.90625 C381.31155077 706.16577768 377.70938661 708.46822808 374.18359375 710.96875 C370.77954855 713.37752227 367.34771217 715.72842549 363.87109375 718.03125 C357.98113509 721.93762259 352.14377194 725.91859816 346.30859375 729.90625 C339.38951761 734.63368465 332.45247516 739.32939482 325.46826172 743.95996094 C320.23251423 747.43887255 315.05610111 751.00123302 309.88256836 754.57177734 C306.04603603 757.21672677 302.19267718 759.83128661 298.30859375 762.40625 C293.10650064 765.85546391 287.9550506 769.37489649 282.80859375 772.90625 C277.10428247 776.81960125 271.3865776 780.70856045 265.62109375 784.53125 C259.09377794 788.85913454 252.63161458 793.27859435 246.17456055 797.71044922 C240.68624742 801.47281844 235.1654975 805.18170997 229.61987305 808.85888672 C225.02553248 811.91187216 220.47383486 815.02347288 215.93359375 818.15625 C209.37336798 822.68219385 202.76563972 827.12976732 196.12109375 831.53125 C188.60850771 836.51125306 181.11667771 841.50301578 173.75390625 846.703125 C170.53073781 848.94117074 167.26609002 851.11243913 163.99609375 853.28125 C158.73160613 856.77317167 153.50546711 860.31450155 148.30859375 863.90625 C142.70247366 867.78052578 137.05341819 871.58223753 131.37109375 875.34375 C124.73330897 879.73978238 118.19121831 884.25743571 111.68359375 888.84375 C105.7645254 893.01518777 99.82223488 897.08020964 93.671875 900.90625 C90.12369043 903.16665548 86.68498999 905.57659649 83.23657227 907.9855957 C79.06848851 910.89143996 74.85611109 913.7240044 70.62109375 916.53125 C65.91915425 919.64967516 61.25182567 922.80789739 56.62109375 926.03125 C51.3618622 929.69208765 46.04695144 933.25899745 40.70703125 936.80078125 C36.64594601 939.49981527 32.62321415 942.24546031 28.62109375 945.03125 C23.85629228 948.34308114 19.06690608 951.61394908 14.24609375 954.84375 C13.63958984 955.25238281 13.03308594 955.66101563 12.40820312 956.08203125 C-2.63209452 966.11990278 -2.63209452 966.11990278 -12.33984375 965.2109375 C-18.78758497 963.48492677 -24.41948638 959.7003914 -29.87890625 955.96875 C-30.83277222 955.32510498 -30.83277222 955.32510498 -31.8059082 954.66845703 C-37.26641005 950.97476469 -42.69431815 947.23272628 -48.12060547 943.48901367 C-51.89412038 940.88711059 -55.68324033 938.31374305 -59.50390625 935.78125 C-66.31766947 931.26363165 -73.05902494 926.64063243 -79.80957031 922.02929688 C-85.5035628 918.14251963 -91.21847775 914.29320549 -96.96484375 910.484375 C-100.62472435 908.03137192 -104.25198056 905.53262187 -107.87890625 903.03125 C-114.50216681 898.4644772 -121.17178547 893.97418351 -127.87890625 889.53125 C-135.38361877 884.55646621 -142.86895142 879.57161808 -150.22265625 874.375 C-154.22303949 871.5982634 -158.28714505 868.91883082 -162.3449707 866.22705078 C-166.75210771 863.29788642 -171.09972632 860.29564577 -175.421875 857.2421875 C-179.21789171 854.59885631 -183.0820574 852.05942951 -186.9375 849.50390625 C-189.63385028 847.69559697 -192.29233496 845.84535042 -194.94140625 843.96875 C-198.30203838 841.598113 -201.70960414 839.34495509 -205.19140625 837.15625 C-212.42783284 832.59771008 -219.41148531 827.68268648 -226.3984375 822.75390625 C-231.9902265 818.81276144 -237.65748809 815.00010446 -243.35766602 811.21850586 C-246.83459903 808.9077002 -250.28399125 806.5691 -253.69140625 804.15625 C-258.11683736 801.03156137 -262.61580057 798.02697214 -267.12890625 795.03125 C-275.16817089 789.69451033 -283.14658429 784.27219833 -291.11279297 778.82714844 C-296.70512828 775.00678875 -302.31966027 771.22613927 -307.96484375 767.484375 C-311.62472435 765.03137192 -315.25198056 762.53262187 -318.87890625 760.03125 C-325.50216681 755.4644772 -332.17178547 750.97418351 -338.87890625 746.53125 C-346.46179721 741.50464266 -354.02395724 736.46562577 -361.45703125 731.21875 C-364.05294596 729.40998362 -366.67939695 727.65454346 -369.31640625 725.90625 C-375.47108188 721.82422863 -381.57014132 717.66325182 -387.64233398 713.45947266 C-391.4857809 710.80757492 -395.33830802 708.2164024 -399.328125 705.7890625 C-400.01414795 705.36286621 -400.7001709 704.93666992 -401.40698242 704.49755859 C-402.67409307 703.71598806 -403.95360299 702.953989 -405.24731445 702.21728516 C-409.34055048 699.66299467 -410.82400748 697.04453098 -412.21936035 692.51727295 C-413.69971215 685.81513977 -413.93350285 678.91162254 -414.37890625 672.078125 C-414.49984793 670.35436532 -414.62181833 668.63067755 -414.74475098 666.90705872 C-415.06924181 662.31658738 -415.37933507 657.72524978 -415.68655396 653.13359451 C-416.00975042 648.34099424 -416.34648768 643.5493446 -416.68164062 638.75756836 C-417.37856132 628.7580723 -418.05801451 618.75745191 -418.72949219 608.75621796 C-418.93497415 605.69632675 -419.14141015 602.63649994 -419.34765625 599.57666016 C-419.80411237 592.78452039 -420.25575423 585.99208684 -420.69750977 579.19897461 C-421.97937459 559.57424298 -423.40853318 539.95975228 -424.81640625 520.34375 C-426.61407059 495.29456717 -428.39606698 470.24479189 -430.1071167 445.18951416 C-431.6040441 423.29184275 -433.17040116 401.39935994 -434.74134064 379.50690079 C-436.49095718 355.12392625 -438.24026143 330.74172078 -439.82958984 306.34765625 C-440.50201622 296.04964556 -441.2118963 285.7547992 -441.9453125 275.4609375 C-442.03802429 274.15640121 -442.13073608 272.85186493 -442.22625732 271.50779724 C-442.68385412 265.07304732 -443.1444678 258.63853623 -443.60986328 252.2043457 C-443.7764781 249.8693113 -443.94298716 247.53426934 -444.109375 245.19921875 C-444.18732803 244.13681976 -444.26528107 243.07442078 -444.34559631 241.97982788 C-445.44267471 226.46752942 -445.44267471 226.46752942 -443.62890625 219.65625 C-443.396875 218.73070312 -443.16484375 217.80515625 -442.92578125 216.8515625 C-441.87890625 214.53125 -441.87890625 214.53125 -439.76953125 213.2109375 C-438.83367187 212.87449219 -438.83367187 212.87449219 -437.87890625 212.53125 C-437.87890625 211.87125 -437.87890625 211.21125 -437.87890625 210.53125 C-425.7478265 202.03030397 -411.30627597 196.17593575 -397.95361328 189.8894043 C-391.60825178 186.89566557 -385.32258413 183.796177 -379.05851746 180.63648987 C-375.47083472 178.82821854 -371.87909764 177.02823007 -368.28515625 175.23242188 C-366.86889026 174.52458928 -365.45263111 173.816743 -364.03637695 173.10888672 C-363.23164948 172.70671936 -362.426922 172.304552 -361.59780884 171.89019775 C-356.70654572 169.44547205 -351.81575431 166.99980283 -346.92489243 164.55427456 C-343.63199332 162.90777073 -340.33906616 161.26132304 -337.04614258 159.61486816 C-335.65076688 158.91718064 -334.25539131 158.21949285 -332.86001587 157.52180481 C-250.89779658 116.54069517 -250.89779658 116.54069517 -248.78980345 115.48670053 C-247.4156478 114.79962143 -246.04149419 114.11253826 -244.66734272 113.4254508 C-241.43514946 111.80933237 -238.20292496 110.19327648 -234.97061825 108.57738495 C-229.85094305 106.01789094 -224.73146136 103.45801948 -219.61390686 100.89428711 C-218.86273842 100.51813011 -218.11156998 100.14197311 -217.33763885 99.75441742 C-215.48405198 98.82605928 -213.63074907 97.89713422 -211.77748108 96.96813965 C-207.9868237 95.08902433 -204.16211731 93.29409711 -200.31640625 91.53125 C-194.25805086 88.71672195 -188.3426129 85.70947513 -182.46801758 82.53125 C-171.90652521 76.82489559 -161.11236416 71.61297565 -150.23925781 66.53125 C-140.24618547 61.84799779 -130.39351593 56.91555868 -120.69140625 51.65625 C-113.90635092 47.98461625 -106.97555862 44.65408027 -99.98950195 41.38330078 C-88.88612626 36.17296118 -77.96340679 30.60507931 -67.04980755 25.01118469 C-61.65055203 22.24480912 -56.24383105 19.49331592 -50.8331728 16.74931335 C-47.2978762 14.95543805 -43.76681367 13.1540338 -40.24365234 11.33642578 C-36.78458164 9.55232313 -33.31592463 7.78830373 -29.83994675 6.03738403 C-28.53276756 5.37464175 -27.22909289 4.70493429 -25.92930984 4.02780151 C-17.34747802 -0.43627566 -9.46424419 -4.06014867 0 0 Z "
     fill="#FDFEFE"
     transform="translate(520.87890625,27.46875)"
     id="path1" />
  <path
     d="M0 0 C0.70511719 0.43957031 1.41023438 0.87914062 2.13671875 1.33203125 C21.47296711 14.51411019 29.9687359 39.68001337 34.37646484 61.54516602 C42.99082325 107.66594053 38.02413263 157.13302252 30 203 C29.82855469 203.99 29.65710938 204.98 29.48046875 206 C24.57621937 233.75087455 15.68525528 260.38931097 4 286 C3.29423828 287.65322266 3.29423828 287.65322266 2.57421875 289.33984375 C-7.07619395 311.77765195 -19.02875305 332.97080326 -33 353 C-33.46615723 353.67579102 -33.93231445 354.35158203 -34.41259766 355.04785156 C-43.64571241 368.42750187 -53.2307323 381.31093307 -64.36328125 393.17578125 C-66.89629089 395.88891602 -69.35767448 398.65371964 -71.8125 401.4375 C-75.01006552 405.00554994 -78.25704734 408.0226513 -82 411 C-84.23196132 413.17473154 -86.40955594 415.39501298 -88.5859375 417.625 C-92.88009951 421.97745381 -97.35737173 426.02381353 -102 430 C-103.07832695 430.93075566 -104.15643466 431.86176537 -105.234375 432.79296875 C-125.30128897 450.10009087 -146.28070878 465.58810152 -168.34912109 480.2265625 C-172.99445167 483.31286886 -177.59733141 486.45733676 -182.1875 489.625 C-186.64477251 492.70095201 -191.11079237 495.75779924 -195.625 498.75 C-201.45283355 502.61393347 -207.22612615 506.55598669 -213 510.5 C-220.63607684 515.71443146 -228.29010944 520.89522978 -236 526 C-243.57766477 531.02271946 -251.13374775 536.05911231 -258.5625 541.30078125 C-263.31905645 544.61664993 -268.16689045 547.79726714 -273 551 C-280.64516939 556.06672277 -288.26553404 561.16280088 -295.8125 566.375 C-303.69638349 571.81767121 -311.66135094 577.13337204 -319.64306641 582.43115234 C-322.13480259 584.08972876 -324.62067054 585.75683062 -327.10546875 587.42578125 C-328.34997803 588.2602478 -328.34997803 588.2602478 -329.61962891 589.11157227 C-331.22332175 590.18716518 -332.82589912 591.2644235 -334.42724609 592.34350586 C-335.14348145 592.82311768 -335.8597168 593.30272949 -336.59765625 593.796875 C-337.23195557 594.22323242 -337.86625488 594.64958984 -338.51977539 595.08886719 C-340 596 -340 596 -341 596 C-341.01369324 548.53881843 -341.01310958 501.0776437 -341.00067413 453.61646187 C-341.00000706 451.02741155 -340.9993773 448.43836121 -340.99875736 445.84931087 C-340.98860113 404.03393613 -340.95559583 362.21870046 -340.86790657 320.40340996 C-340.86099138 317.06833793 -340.85416506 313.73326572 -340.84741211 310.39819336 C-340.84573311 309.57173967 -340.84405412 308.74528598 -340.84232424 307.89378823 C-340.81488689 294.12589249 -340.80649702 280.35803859 -340.80395857 266.59011837 C-340.80090677 252.14841281 -340.77916553 237.70682565 -340.73947543 223.26517373 C-340.7159347 214.49484427 -340.70657313 205.72475216 -340.71648689 196.95439551 C-340.72177326 191.04582828 -340.70891621 185.1374801 -340.6813371 179.22897538 C-340.66602582 175.83499162 -340.65886833 172.44149895 -340.67340279 169.04750061 C-340.68493116 165.37993237 -340.66605817 161.71376859 -340.63923645 158.04631042 C-340.64990971 156.97402087 -340.66058297 155.90173131 -340.67157966 154.79694813 C-340.57293089 147.62146754 -340.57293089 147.62146754 -337.58277416 144.37799549 C-336.73045869 143.92325698 -335.87814322 143.46851847 -335 143 C-334.35200439 142.63890137 -333.70400879 142.27780273 -333.03637695 141.90576172 C-332.42238037 141.62490723 -331.80838379 141.34405273 -331.17578125 141.0546875 C-326.97346375 139.03576299 -323.10329851 136.64703972 -319.1875 134.125 C-313.85125723 130.69030161 -308.41742263 127.5610057 -302.83129883 124.54882812 C-298.23981526 122.03711201 -293.74726212 119.36321383 -289.25 116.6875 C-288.28755371 116.11700928 -287.32510742 115.54651855 -286.33349609 114.95874023 C-281.0860271 111.84527707 -275.85045571 108.71272466 -270.625 105.5625 C-262.10097975 100.42397464 -253.48761109 95.43800792 -244.88671875 90.4296875 C-234.03155688 84.10842955 -223.2086532 77.73835951 -212.45092773 71.25268555 C-208.33218403 68.77771839 -204.17987591 66.37006297 -200 64 C-195.33562556 61.35505741 -190.71432617 58.64863698 -186.125 55.875 C-179.49670564 51.87118315 -172.81676435 47.95919518 -166.125 44.0625 C-165.09093018 43.46018555 -164.05686035 42.85787109 -162.99145508 42.23730469 C-160.94827133 41.04731324 -158.90505906 39.85737077 -156.86181641 38.66748047 C-152.84219852 36.32538951 -148.82499983 33.97926576 -144.8125 31.625 C-144.12889404 31.22434326 -143.44528809 30.82368652 -142.7409668 30.41088867 C-138.59312332 27.96940122 -134.50868 25.44312821 -130.4375 22.875 C-123.91221537 18.8420676 -117.1714974 15.42433153 -110.26757812 12.09912109 C-107.84145589 10.92315185 -105.42875017 9.72192689 -103.015625 8.51953125 C-71.49954644 -7.02623884 -32.40535361 -20.78340127 0 0 Z "
     fill="#000000"
     transform="translate(871,361)"
     id="path2" />
  <path
     d="M0 0 C7.73664455 4.19972545 15.39888253 8.49700143 23 12.9375 C24.50433594 13.81051758 24.50433594 13.81051758 26.0390625 14.70117188 C31.94585993 18.14680371 37.7544827 21.7071093 43.49072266 25.43017578 C46.94508741 27.59125433 50.52479475 29.48333053 54.1171875 31.40234375 C57.31045411 33.17205384 60.40129543 35.06971949 63.5 37 C67.44531799 39.45651875 71.40196844 41.80802963 75.5 44 C80.66318642 46.76465843 85.61369153 49.81552805 90.58203125 52.9140625 C95.26971797 55.8082351 100.09020191 58.46749739 104.90625 61.140625 C110.18055306 64.31053441 113.36002279 66.91460679 115.91796875 72.58203125 C116.44036133 73.7208374 116.96275391 74.85964355 117.50097656 76.03295898 C118.06326218 77.29275639 118.62543273 78.55260516 119.1875 79.8125 C119.79392339 81.14521589 120.40170806 82.47731305 121.01074219 83.80883789 C122.3242815 86.68461717 123.63092099 89.56339804 124.93310547 92.44433594 C127.02722088 97.07005016 129.15246381 101.68102907 131.28515625 106.2890625 C131.6489035 107.07510361 132.01265076 107.86114471 132.38742065 108.67100525 C133.13208332 110.27999501 133.87680423 111.88895782 134.62158203 113.49789429 C136.52365781 117.61012492 138.41996666 121.72501158 140.31640625 125.83984375 C141.08999592 127.51807129 141.86359625 129.19629391 142.63720703 130.87451172 C143.02450989 131.71471863 143.41181274 132.55492554 143.81085205 133.42059326 C147.04672817 140.43960268 150.28456952 147.45770551 153.52282715 154.47561646 C154.64865953 156.91581478 155.77405993 159.35621195 156.89941406 161.79663086 C162.46968781 173.87271535 168.06880737 185.93430413 173.76171875 197.953125 C180.67910719 212.56280568 187.48113721 227.20099429 193.9831543 242.00097656 C196.79070136 248.36455725 199.73392622 254.61038034 202.92382812 260.78955078 C206.21145379 267.24160053 209.08652965 273.87265536 212 280.5 C215.24967546 287.89140879 218.50482793 295.25037992 222.1875 302.4375 C225.41267481 308.73176628 228.34698974 315.12417933 231.21899414 321.58666992 C234.75613334 329.52076821 238.43594267 337.38585823 242.125 345.25 C245.80048833 353.08572548 249.46877206 360.91724984 252.875 368.875 C255.35577635 374.64482569 258.08205111 380.23599063 260.93310547 385.82763672 C264.93835023 393.7423444 268.45041135 401.87389669 272 410 C272.12337521 394.61922343 271.78368487 379.27175207 271.31634521 363.89871216 C271.08097112 356.13202493 270.86238577 348.36485157 270.64453125 340.59765625 C270.62012466 339.72842718 270.59571808 338.85919811 270.5705719 337.96362877 C269.82011335 311.12873179 269.17291367 284.29115581 268.52912432 257.45352912 C268.41067599 252.52416987 268.29000037 247.59486843 268.16830444 242.66558838 C266.71635406 183.78232548 266.71635406 183.78232548 267 157 C269.2405266 158.2749445 271.4804217 159.55097701 273.7199707 160.82763672 C274.35016365 161.18609177 274.9803566 161.54454681 275.6296463 161.91386414 C280.22594875 164.53558178 284.73256303 167.26931695 289.1875 170.125 C294.458798 173.46325612 299.7792359 176.58148352 305.29296875 179.5078125 C309.4525787 181.80069995 313.45384451 184.33927022 317.46875 186.875 C320.33778326 188.64387765 323.27784164 190.25580705 326.2421875 191.859375 C331.78415081 194.85899793 337.21196818 198.02478822 342.625 201.25 C344.56239821 202.39991109 346.4998992 203.54964904 348.4375 204.69921875 C349.85482422 205.54105713 349.85482422 205.54105713 351.30078125 206.39990234 C354.39229549 208.23255288 357.49080032 210.05298425 360.59130859 211.87036133 C367.74857862 216.06591349 374.88099247 220.30235133 382 224.5625 C382.87994629 225.08787354 383.75989258 225.61324707 384.66650391 226.15454102 C385.47780762 226.64108154 386.28911133 227.12762207 387.125 227.62890625 C387.84945313 228.06275635 388.57390625 228.49660645 389.3203125 228.94360352 C391 230 391 230 392 231 C392.15968054 233.87311459 392.25324357 236.7237562 392.30528259 239.59962463 C392.32523273 240.51711215 392.34518287 241.43459967 392.36573756 242.37988985 C392.43086062 245.49739249 392.48737223 248.61497526 392.54272461 251.73266602 C392.56347546 252.82983354 392.5842263 253.92700106 392.60560596 255.05741608 C393.15362083 284.39957807 393.22055997 313.74517842 393.29708207 343.09147021 C393.3185776 351.28036463 393.34488326 359.46924206 393.37124526 367.65812201 C393.41846059 382.36948428 393.4617751 397.08085528 393.50268555 411.79223633 C393.54168809 425.81568282 393.5831853 439.83911868 393.62768555 453.86254883 C393.63040925 454.72168378 393.63313296 455.58081874 393.6359392 456.46598808 C393.64691457 459.92758132 393.6578925 463.38917454 393.66887531 466.85076775 C393.89502949 538.23386037 394.08764325 609.61646463 394 681 C386.30252748 676.62318963 386.30252748 676.62318963 383.23828125 674.484375 C382.60051758 674.04198486 381.96275391 673.59959473 381.30566406 673.14379883 C380.64791992 672.68384521 379.99017578 672.2238916 379.3125 671.75 C377.89758974 670.76887574 376.4822214 669.78841177 375.06640625 668.80859375 C374.37562988 668.33019043 373.68485352 667.85178711 372.97314453 667.35888672 C368.35590574 664.1790363 363.67342988 661.09630823 359 658 C357.12459373 656.75060962 355.24960484 655.50059254 353.375 654.25 C349.78375899 651.85426422 346.1903227 649.4619434 342.59375 647.07421875 C335.58532532 642.41752615 328.59479317 637.75267145 321.7265625 632.890625 C317.97753601 630.29101351 314.1755991 627.77339421 310.375 625.25 C304.3490663 621.24571859 298.34197637 617.21672218 292.375 613.125 C291.74899902 612.69735352 291.12299805 612.26970703 290.47802734 611.82910156 C289.25953234 610.99075619 288.04824516 610.14183577 286.84448242 609.2824707 C285.59074315 608.41074438 284.30438477 607.58452669 282.9934082 606.80151367 C276.18474396 602.42747749 273.65694668 596.28307579 270.4375 589.0625 C269.86786705 587.82647739 269.29623542 586.59137404 268.72265625 585.35717773 C267.12783669 581.91403869 265.56456769 578.45699052 264 575 C262.84377808 572.51575023 261.67139523 570.03966498 260.5 567.5625 C259.67343542 565.78003066 258.84703655 563.99748318 258.02294922 562.21386719 C255.70754967 557.20287838 253.38497302 552.19521334 251.0625 547.1875 C250.51150635 545.99922607 249.9605127 544.81095215 249.39282227 543.58666992 C244.94322407 533.99931614 240.44530145 524.43509846 235.9375 514.875 C230.72147791 503.81204391 225.54705479 492.73164503 220.43505859 481.62011719 C216.67134344 473.44232503 212.87345514 465.28084377 209.0625 457.125 C204.66434758 447.71188202 200.27437827 438.29508333 195.90133667 428.87026978 C195.06865242 427.07575903 194.23562144 425.28140918 193.40258789 423.48706055 C189.17047481 414.37078802 189.17047481 414.37078802 187.08984375 409.8671875 C183.90658497 403.00010836 180.64010116 396.17795639 177.34326172 389.36474609 C171.77208646 377.84718428 166.36188475 366.28227501 161.15966797 354.59423828 C155.68388834 342.34463106 150.16095913 330.12113944 144.06494141 318.16625977 C139.53436282 309.21000912 135.45158175 300.03501399 131.31494141 290.89208984 C130.40396152 288.88847533 129.48372358 286.88905415 128.55615234 284.89306641 C127.86900146 283.4087915 127.86900146 283.4087915 127.16796875 281.89453125 C126.75184326 281.0022583 126.33571777 280.10998535 125.90698242 279.19067383 C125 277 125 277 125 275 C124.34 275 123.68 275 123 275 C123.23735713 276.09459628 123.23735713 276.09459628 123.47950935 277.21130562 C123.9474628 279.71851524 124.19870523 282.07614459 124.32785034 284.61911011 C124.37536816 285.51926157 124.42288597 286.41941303 124.47184372 287.34684181 C124.54354719 288.81266732 124.54354719 288.81266732 124.61669922 290.30810547 C124.67060444 291.35000219 124.72450966 292.39189892 124.78004837 293.46536827 C124.95849772 296.932469 125.13162288 300.39981413 125.3046875 303.8671875 C125.42937886 306.31298317 125.55437447 308.75876335 125.67965698 311.20452881 C125.9792295 317.07020925 126.27530323 322.93605994 126.56967866 328.80200291 C126.80661613 333.52113942 127.04534625 338.24018231 127.28527832 342.95916748 C127.31921204 343.62662188 127.35314576 344.29407628 127.38810778 344.98175657 C127.42203866 345.64914086 127.45596955 346.31652516 127.49092865 347.00413322 C129.08301779 378.31914157 130.63668264 409.63577404 132.09057617 440.95751953 C132.77168577 455.58170824 133.5211289 470.19980353 134.44238281 484.81103516 C134.8768853 491.88627808 135.10627669 498.91125366 135 506 C127.90049546 502.03518071 121.21537973 497.81457421 114.6953125 492.95703125 C111.29503814 490.48813639 107.76273049 488.28085017 104.19995117 486.05615234 C100.63865448 483.76781476 97.16118432 481.37748623 93.68359375 478.96484375 C88.03777036 475.06556945 82.36133085 471.2182447 76.640625 467.4296875 C75.60442268 466.7428463 75.60442268 466.7428463 74.54728699 466.04212952 C71.74165407 464.18364435 68.93502627 462.32669855 66.12548828 460.47412109 C58.08005558 455.16543167 50.18486141 449.78424507 42.56030273 443.87939453 C39.40337012 441.56204283 36.1156977 439.67625394 32.64453125 437.875 C31 437 31 437 30 436 C29.80030205 434.61305883 29.66256922 433.21710993 29.55102539 431.8203125 C29.4774733 430.92586426 29.4039212 430.03141602 29.32814026 429.10986328 C29.25208054 428.1248584 29.17602081 427.13985352 29.09765625 426.125 C29.01503036 425.09487793 28.93240448 424.06475586 28.84727478 423.00341797 C28.67113476 420.79411921 28.49726824 418.58463825 28.32543945 416.375 C28.07220131 413.12452272 27.81121938 409.87474945 27.54882812 406.625 C26.53128399 393.8496325 25.67898686 381.06921366 24.92499924 368.27580261 C24.24081693 356.68926576 23.47868804 345.10961024 22.66796875 333.53125 C22.57992981 332.27381926 22.57992981 332.27381926 22.4901123 330.99098587 C22.1219157 325.73989002 21.75145863 320.48895502 21.38062668 315.23804474 C20.84488618 307.64260807 20.31339521 300.04687178 19.78112984 292.45119095 C19.57831569 289.55740834 19.37533217 286.66363763 19.17234802 283.76986694 C17.80118483 264.2111795 16.46213381 244.65033481 15.12817383 225.08908081 C14.82005819 220.57108997 14.51171874 216.05311446 14.203125 211.53515625 C14.15272064 210.79712454 14.10231628 210.05909283 14.05038452 209.29869652 C13.3777632 199.45576791 12.69534264 189.61357564 12.00208282 179.77207947 C11.56279534 173.53562983 11.12478742 167.29909017 10.6875 161.0625 C10.63917526 160.37332741 10.59085052 159.68415482 10.5410614 158.97409821 C6.82977491 105.99645858 3.45088132 52.99510766 0 0 Z "
     fill="#000000"
     transform="translate(100,276)"
     id="path3" />
  <path
     d="M0 0 C2.26697782 1.06782079 4.43517393 2.16831918 6.625 3.375 C7.2739624 3.7265918 7.9229248 4.07818359 8.59155273 4.44042969 C14.60845955 7.72689785 20.52698837 11.18181992 26.44433594 14.64331055 C32.68947455 18.28214631 39.01489373 21.75426915 45.375 25.1875 C52.45074399 29.00751111 59.33264415 32.98138319 66.1328125 37.2734375 C69.96345344 39.58017223 73.94696092 41.49010739 77.96875 43.4375 C81.26166136 45.13487699 84.36387308 47.02872022 87.5 49 C92.51285625 52.14719156 97.5912629 54.85925397 102.91015625 57.4453125 C108.12957364 60.07151746 113.15796012 63.03074871 118.20898438 65.96337891 C121.17221366 67.67846499 124.14971813 69.36844195 127.125 71.0625 C131.49584464 73.55527103 135.8483097 76.07747537 140.1875 78.625 C144.77394384 81.30900874 149.41108175 83.87630498 154.0859375 86.40234375 C158.51115984 88.82850452 162.87886701 91.35319251 167.25 93.875 C171.13995895 96.09845166 175.07855272 98.23071598 179.01464844 100.37109375 C184.23389372 103.21888607 189.42864054 106.1107205 194.625 109 C195.20481628 109.32225555 195.78463257 109.64451111 196.38201904 109.97653198 C207.9017493 116.3794936 219.40287535 122.81547314 230.8984375 129.26171875 C234.03552164 131.01990823 237.17381873 132.77591344 240.3125 134.53125 C256.68131734 143.68681872 273.04313873 152.85599279 289.3125 162.1875 C294.41190402 165.11018 299.54355724 167.96938872 304.6875 170.8125 C311.91061108 174.80544325 319.06914514 178.90068132 326.19213867 183.06958008 C331.09803347 185.93248102 336.05494369 188.68448876 341.04760742 191.39306641 C347.64359254 194.98314116 354.19894687 198.64748439 360.75952148 202.30175781 C361.34940353 202.63031769 361.93928558 202.95887756 362.54704285 203.2973938 C364.2908104 204.26872272 366.03456546 205.24007406 367.77832031 206.21142578 C370.59424826 207.77473953 373.41603997 209.32636369 376.2421875 210.87109375 C376.98702393 211.28125732 377.73186035 211.6914209 378.49926758 212.11401367 C379.83191481 212.84775022 381.16750881 213.57617139 382.5065918 214.2980957 C385.55808816 215.98778134 387.0190474 217.0285711 389 220 C381.8312011 224.93675529 374.40944495 229.2558561 366.81640625 233.5 C361.724688 236.37110104 356.80755081 239.37495359 351.99633789 242.69702148 C349.41884733 244.37930926 346.72511099 245.68574907 343.953125 247.01171875 C341.94557079 248.02754118 340.08189221 249.16212694 338.1875 250.375 C335.20632663 252.27995827 332.18039645 254.01551625 329.0625 255.6875 C322.54685968 259.19662466 316.1890766 262.96385244 309.8203125 266.73046875 C309.15805664 267.11895996 308.49580078 267.50745117 307.81347656 267.90771484 C306.25913621 268.84391823 304.74569812 269.84745325 303.2421875 270.86328125 C301 272 301 272 299.01171875 271.88671875 C296.4322762 270.74976058 294.18181277 269.34520026 291.8125 267.8125 C285.26485421 263.66409591 278.52387993 259.88961759 271.75 256.125 C262.43170912 250.93899499 253.18701833 245.65551413 244.02246094 240.203125 C240.39428105 238.04478718 236.76081648 235.89544481 233.125 233.75 C232.4119873 233.32904053 231.69897461 232.90808105 230.96435547 232.47436523 C227.05619417 230.17687055 223.12218189 227.95303633 219.125 225.8125 C214.50746795 223.336331 210.13884595 220.56083938 205.7421875 217.71484375 C202.20806798 215.50476046 198.55793536 213.56086291 194.8828125 211.59765625 C190.66815115 209.26188865 186.60452852 206.69759696 182.53125 204.125 C179.67011225 202.36086098 176.73807624 200.75436418 173.78125 199.15625 C167.15933927 195.57294549 160.71084972 191.7191303 154.25 187.85546875 C148.71873948 184.56342591 143.13121554 181.41788798 137.46875 178.35742188 C134.40473494 176.67269841 131.45633072 174.86715624 128.5 173 C123.80151702 170.07857791 119.05383685 167.35586179 114.1796875 164.7421875 C107.55142355 161.11048514 101.045231 157.26029577 94.51269531 153.45996094 C92.05998279 152.03485203 89.604779 150.61415589 87.1484375 149.1953125 C79.47714874 144.76388164 71.81783785 140.31413081 64.1875 135.8125 C59.29006343 132.92340895 54.38007889 130.06153944 49.4375 127.25 C41.97747719 123.00550427 34.56901849 118.67401045 27.15795898 114.34472656 C20.18799038 110.2738962 13.20814759 106.22075588 6.21948242 102.18212891 C-0.15659709 98.49477378 -6.5160889 94.77936392 -12.875 91.0625 C-21.51124114 86.01536404 -30.17372274 81.01736834 -38.87451172 76.08227539 C-42.98464376 73.7461175 -47.0650515 71.37179471 -51.11328125 68.9296875 C-55.29984528 66.40505266 -59.53519228 63.99153197 -63.8125 61.625 C-70.04780728 58.1490848 -76.14381727 54.5062314 -82.203125 50.73046875 C-85.42617855 48.7363169 -88.69094548 46.84691415 -92 45 C-91 42 -91 42 -87.96484375 40.23828125 C-86.627165 39.58647427 -85.28428845 38.94526984 -83.9375 38.3125 C-82.46345243 37.59784028 -80.98949652 36.88299148 -79.515625 36.16796875 C-78.76087891 35.80622559 -78.00613281 35.44448242 -77.22851562 35.07177734 C-73.86565576 33.454451 -70.52539605 31.7931047 -67.1875 30.125 C-66.53426758 29.79983398 -65.88103516 29.47466797 -65.20800781 29.13964844 C-59.98997348 26.52937027 -54.83785823 23.80332776 -49.6875 21.0625 C-42.53111975 17.261082 -35.29525546 13.68829369 -27.94555664 10.27612305 C-24.06105937 8.46903141 -20.2190243 6.61757547 -16.42578125 4.625 C-15.70028076 4.24682129 -14.97478027 3.86864258 -14.22729492 3.47900391 C-12.865697 2.7639713 -11.50989862 2.03773814 -10.16137695 1.29833984 C-6.32387925 -0.70768269 -4.10627996 -1.53335771 0 0 Z "
     fill="#000000"
     transform="translate(214,202)"
     id="path4" />
  <path
     d="M0 0 C2.80201988 1.33549136 5.57621569 2.70322862 8.33300781 4.13012695 C9.98296753 4.98368774 9.98296753 4.98368774 11.66625977 5.85449219 C12.83374756 6.46236572 14.00123535 7.07023926 15.20410156 7.6965332 C16.10290543 8.16314865 16.10290543 8.16314865 17.01986694 8.63919067 C25.71666022 13.1555822 34.3389301 17.79345584 42.90209961 22.55883789 C48.64222851 25.74324698 54.45894127 28.6916624 60.35253906 31.58325195 C63.84981665 33.36511904 67.25044075 35.28578099 70.64160156 37.2590332 C75.0700903 39.8350862 79.54046617 42.25228585 84.14160156 44.5090332 C90.36629684 47.56542853 96.4419233 50.85271636 102.51660156 54.1965332 C109.49615247 58.03605422 116.50653408 61.74575493 123.66015625 65.2487793 C130.00813872 68.38400422 136.17753057 71.82738008 142.36523438 75.26538086 C147.03629992 77.85214266 151.72268235 80.34544842 156.51660156 82.6965332 C163.56569092 86.15880677 170.43344925 89.92942463 177.31884766 93.70483398 C188.06276575 99.59451662 198.83781367 105.40518268 209.82910156 110.8215332 C215.09726982 113.42858568 220.18697516 116.25669221 225.26489258 119.21508789 C229.52111804 121.67275089 233.85394225 123.90907786 238.26660156 126.0715332 C244.49488031 129.12459605 250.58040336 132.38689314 256.64160156 135.7590332 C263.20642045 139.4096796 269.81397487 142.89439354 276.55908203 146.19824219 C282.94069632 149.35069252 289.14403596 152.808732 295.36474609 156.26513672 C300.03599056 158.85194936 304.72251912 161.34536837 309.51660156 163.6965332 C316.56569092 167.15880677 323.43344925 170.92942463 330.31884766 174.70483398 C341.06276575 180.59451662 351.83781367 186.40518268 362.82910156 191.8215332 C368.27086995 194.51423793 373.53578214 197.42595529 378.78344727 200.47216797 C382.99599733 202.91292105 387.25362949 205.15280661 391.64160156 207.2590332 C387.61695296 210.67412337 383.37966634 213.31625694 378.82910156 215.9465332 C378.08789062 216.37933594 377.34667969 216.81213867 376.58300781 217.25805664 C370.80136324 220.62169986 364.96487843 223.88350354 359.11889648 227.13354492 C354.87182832 229.5130966 350.78820555 232.03097474 346.82910156 234.87231445 C344.32596575 236.45912376 341.70286271 237.7156618 339.04541016 239.02099609 C334.06893329 241.58403837 329.27747899 244.48407904 324.45410156 247.3215332 C323.38740234 247.94608398 322.32070313 248.57063477 321.22167969 249.21411133 C315.54611364 252.51458237 315.54611364 252.51458237 309.98217773 255.99633789 C307.64160156 257.2590332 307.64160156 257.2590332 304.73535156 256.67700195 C301.40301729 255.14968208 298.29275845 253.44529355 295.14160156 251.5715332 C290.56873396 248.89171824 285.97703741 246.38568392 281.20410156 244.0715332 C273.69352198 240.38390629 266.45841298 236.24764239 259.19189453 232.10375977 C253.01643548 228.5862606 246.80303594 225.17085947 240.51123047 221.86694336 C237.12827851 220.0813638 233.83550433 218.20289749 230.57910156 216.1965332 C226.91814161 213.95329794 223.18914471 212.01421854 219.32910156 210.1340332 C213.07454954 207.06485959 207.04745925 203.68303116 201.01660156 200.1965332 C193.0010822 195.55607562 193.0010822 195.55607562 184.76660156 191.3215332 C177.97625124 188.0321567 171.47618491 184.23997873 164.92456055 180.50512695 C156.64406024 175.7959136 148.28797922 171.23894368 139.88671875 166.74902344 C134.46382528 163.83854996 129.16400585 160.79012373 123.90356445 157.59619141 C120.9228156 155.83412325 117.88760893 154.32216145 114.76660156 152.8215332 C109.20579669 150.10792722 103.87922417 147.10285618 98.56347656 143.9387207 C95.67770081 142.27978544 92.75587684 140.7845383 89.76660156 139.3215332 C84.96342226 136.96315982 80.32735335 134.40184714 75.70117188 131.71459961 C69.70564673 128.25291677 63.61192511 124.97841516 57.51660156 121.6965332 C50.32181424 117.82199227 43.20147143 113.88265012 36.17675781 109.70825195 C33.60419414 108.2376493 30.99495391 106.92714224 28.32910156 105.6340332 C22.31270278 102.68866826 16.52052631 99.39198228 10.70410156 96.0715332 C2.28764196 91.27062387 -6.20211265 86.664369 -14.8046875 82.20678711 C-20.99912572 78.99057879 -27.11218505 75.65264137 -33.19946289 72.23876953 C-39.87837117 68.50246543 -46.61473139 64.87689909 -53.35839844 61.2590332 C-62.66259873 56.26643632 -71.92488059 51.20767341 -81.13964844 46.05200195 C-82.86331032 45.09185535 -84.59365669 44.14140408 -86.35839844 43.2590332 C-86.35839844 42.5990332 -86.35839844 41.9390332 -86.35839844 41.2590332 C-76.81869849 36.09220468 -67.21162408 31.16781981 -57.38525391 26.56811523 C-50.29735355 23.24751415 -43.29674505 19.770503 -36.31005859 16.24291992 C-34.33199395 15.24572196 -32.351555 14.25341666 -30.37011719 13.26293945 C-29.70753906 12.93156982 -29.04496094 12.6002002 -28.36230469 12.25878906 C-27.0365244 11.59735263 -25.7097142 10.93797617 -24.38183594 10.28076172 C-20.88052266 8.54348535 -17.41278748 6.76148635 -13.97167969 4.9074707 C-13.25173828 4.52719727 -12.53179687 4.14692383 -11.79003906 3.75512695 C-10.40981523 3.02494402 -9.03687644 2.28076582 -7.67285156 1.52075195 C-2.97833232 -0.93573898 -2.97833232 -0.93573898 0 0 Z "
     fill="#000000"
     transform="translate(367.3583984375,123.740966796875)"
     id="path5" />
  <path
     d="M0 0 C1.23838531 0.65764359 2.46616537 1.33557664 3.68359375 2.03125 C5.0691374 2.77303245 6.45589877 3.512544 7.84375 4.25 C8.54773926 4.63027344 9.25172852 5.01054688 9.97705078 5.40234375 C13.4658319 7.23929705 17.04197844 8.87938219 20.62109375 10.53125 C31.77527119 15.73788837 42.75636254 21.24545934 53.62109375 27.03125 C64.39111036 32.7640705 75.28912455 38.19043818 86.30229282 43.44097519 C100.87382437 50.39400551 115.3307017 57.5688451 129.76438642 64.80219936 C133.0658847 66.45615684 136.36857952 68.10772197 139.67112732 69.75958252 C145.89942119 72.87526424 152.12669718 75.99297445 158.3535766 79.1114819 C165.39491895 82.63776068 172.43740771 86.16174697 179.47999489 89.68553877 C189.31563655 94.60688125 199.15087239 99.529033 208.98521233 104.45297623 C212.37184133 106.14860032 215.75856675 107.84403172 219.14530945 109.53942871 C222.83221954 111.38511399 226.51877707 113.23149907 230.20491028 115.07873535 C231.64815648 115.80152637 233.09140847 116.52430584 234.53466797 117.24707031 C235.46289541 117.71267931 235.46289541 117.71267931 236.40987492 118.18769455 C240.79811909 120.38428589 245.22303235 122.48655979 249.68359375 124.53125 C255.74194914 127.34577805 261.6573871 130.35302487 267.53198242 133.53125 C277.39864488 138.86218911 287.46257836 143.78342459 297.62109375 148.53125 C307.91918695 153.34492258 318.10287086 158.35876946 328.11938477 163.73583984 C336.33734314 168.14661395 344.6752477 172.23463039 353.10400391 176.22705078 C363.29678624 181.06387629 373.37624118 186.11859571 383.453125 191.19140625 C386.50355284 192.7233195 389.56112694 194.24040474 392.61987305 195.75561523 C395.13805849 197.0066216 397.64968665 198.27024311 400.15869141 199.53955078 C401.55270413 200.24401454 402.94839047 200.94517079 404.34521484 201.64404297 C406.65196542 202.80251847 408.94966342 203.97747021 411.24609375 205.15625 C411.94532959 205.50453857 412.64456543 205.85282715 413.36499023 206.21166992 C419.21863324 209.2523852 424.01926106 212.40019318 426.27148438 218.80029297 C429.49958672 232.9761148 426.51743641 249.4380833 425.49609375 263.78125 C425.31933514 266.32174901 425.14299761 268.86227735 424.96704102 271.40283203 C424.36187313 280.11302762 423.74206695 288.82216922 423.12109375 297.53125 C423.00156416 299.20886213 422.88203703 300.88647444 422.76251221 302.56408691 C421.66623969 317.94638096 420.56695781 333.32846076 419.46254635 348.71017265 C418.1179478 367.43944189 416.78104461 386.16852687 415.55859375 404.90625 C414.18545025 425.93079476 412.67616293 446.94528555 411.16772461 467.96044922 C410.9477223 471.02571388 410.72775607 474.09098112 410.5078125 477.15625 C410.45223112 477.93071598 410.39664974 478.70518196 410.33938408 479.50311661 C409.43145922 492.15774176 408.53318647 504.81303232 407.640625 517.46875 C407.54719975 518.793409 407.54719975 518.793409 407.45188713 520.1448288 C406.88097171 528.24125081 406.3107229 536.33771976 405.74069214 544.4342041 C404.4618603 562.59706465 403.18064437 580.75971776 401.87260437 598.92050171 C401.70026426 601.31360714 401.5281406 603.70672804 401.3560791 606.09985352 C400.8780509 612.74692712 400.39954371 619.39396037 399.91640472 626.04066467 C399.67586234 629.355129 399.43743731 632.66974275 399.19921875 635.984375 C399.10781616 637.25152344 399.01641357 638.51867187 398.92224121 639.82421875 C398.43486378 646.69783807 397.99402896 653.57126492 397.60742188 660.45117188 C397.56496212 661.19562435 397.52250237 661.94007683 397.47875595 662.70708847 C397.27485377 666.28686111 397.07743719 669.86672292 396.89337158 673.4475708 C395.66402917 695.42228106 395.66402917 695.42228106 390.12109375 700.53125 C387.67578125 702.3046875 387.67578125 702.3046875 384.99609375 703.90625 C381.31155077 706.16577768 377.70938661 708.46822808 374.18359375 710.96875 C370.77954855 713.37752227 367.34771217 715.72842549 363.87109375 718.03125 C357.98113509 721.93762259 352.14377194 725.91859816 346.30859375 729.90625 C339.38951761 734.63368465 332.45247516 739.32939482 325.46826172 743.95996094 C320.23251423 747.43887255 315.05610111 751.00123302 309.88256836 754.57177734 C306.04603603 757.21672677 302.19267718 759.83128661 298.30859375 762.40625 C293.10650064 765.85546391 287.9550506 769.37489649 282.80859375 772.90625 C277.10428247 776.81960125 271.3865776 780.70856045 265.62109375 784.53125 C259.09377794 788.85913454 252.63161458 793.27859435 246.17456055 797.71044922 C240.68624742 801.47281844 235.1654975 805.18170997 229.61987305 808.85888672 C225.02553248 811.91187216 220.47383486 815.02347288 215.93359375 818.15625 C209.37336798 822.68219385 202.76563972 827.12976732 196.12109375 831.53125 C188.60850771 836.51125306 181.11667771 841.50301578 173.75390625 846.703125 C170.53073781 848.94117074 167.26609002 851.11243913 163.99609375 853.28125 C158.73160613 856.77317167 153.50546711 860.31450155 148.30859375 863.90625 C142.70247366 867.78052578 137.05341819 871.58223753 131.37109375 875.34375 C124.73330897 879.73978238 118.19121831 884.25743571 111.68359375 888.84375 C105.7645254 893.01518777 99.82223488 897.08020964 93.671875 900.90625 C90.12369043 903.16665548 86.68498999 905.57659649 83.23657227 907.9855957 C79.06848851 910.89143996 74.85611109 913.7240044 70.62109375 916.53125 C65.91915425 919.64967516 61.25182567 922.80789739 56.62109375 926.03125 C51.3618622 929.69208765 46.04695144 933.25899745 40.70703125 936.80078125 C36.64594601 939.49981527 32.62321415 942.24546031 28.62109375 945.03125 C23.85629228 948.34308114 19.06690608 951.61394908 14.24609375 954.84375 C13.63958984 955.25238281 13.03308594 955.66101563 12.40820312 956.08203125 C-2.63209452 966.11990278 -2.63209452 966.11990278 -12.33984375 965.2109375 C-18.78758497 963.48492677 -24.41948638 959.7003914 -29.87890625 955.96875 C-30.83277222 955.32510498 -30.83277222 955.32510498 -31.8059082 954.66845703 C-37.26641005 950.97476469 -42.69431815 947.23272628 -48.12060547 943.48901367 C-51.89412038 940.88711059 -55.68324033 938.31374305 -59.50390625 935.78125 C-66.31766947 931.26363165 -73.05902494 926.64063243 -79.80957031 922.02929688 C-85.5035628 918.14251963 -91.21847775 914.29320549 -96.96484375 910.484375 C-100.62472435 908.03137192 -104.25198056 905.53262187 -107.87890625 903.03125 C-114.50216681 898.4644772 -121.17178547 893.97418351 -127.87890625 889.53125 C-135.38361877 884.55646621 -142.86895142 879.57161808 -150.22265625 874.375 C-154.22303949 871.5982634 -158.28714505 868.91883082 -162.3449707 866.22705078 C-166.75210771 863.29788642 -171.09972632 860.29564577 -175.421875 857.2421875 C-179.21789171 854.59885631 -183.0820574 852.05942951 -186.9375 849.50390625 C-189.63385028 847.69559697 -192.29233496 845.84535042 -194.94140625 843.96875 C-198.30203838 841.598113 -201.70960414 839.34495509 -205.19140625 837.15625 C-212.42783284 832.59771008 -219.41148531 827.68268648 -226.3984375 822.75390625 C-231.9902265 818.81276144 -237.65748809 815.00010446 -243.35766602 811.21850586 C-246.83459903 808.9077002 -250.28399125 806.5691 -253.69140625 804.15625 C-258.11683736 801.03156137 -262.61580057 798.02697214 -267.12890625 795.03125 C-275.16817089 789.69451033 -283.14658429 784.27219833 -291.11279297 778.82714844 C-296.70512828 775.00678875 -302.31966027 771.22613927 -307.96484375 767.484375 C-311.62472435 765.03137192 -315.25198056 762.53262187 -318.87890625 760.03125 C-325.50216681 755.4644772 -332.17178547 750.97418351 -338.87890625 746.53125 C-346.46179721 741.50464266 -354.02395724 736.46562577 -361.45703125 731.21875 C-364.05294596 729.40998362 -366.67939695 727.65454346 -369.31640625 725.90625 C-375.47108188 721.82422863 -381.57014132 717.66325182 -387.64233398 713.45947266 C-391.4857809 710.80757492 -395.33830802 708.2164024 -399.328125 705.7890625 C-400.01414795 705.36286621 -400.7001709 704.93666992 -401.40698242 704.49755859 C-402.67409307 703.71598806 -403.95360299 702.953989 -405.24731445 702.21728516 C-409.34055048 699.66299467 -410.82400748 697.04453098 -412.21936035 692.51727295 C-413.69971215 685.81513977 -413.93350285 678.91162254 -414.37890625 672.078125 C-414.49984793 670.35436532 -414.62181833 668.63067755 -414.74475098 666.90705872 C-415.06924181 662.31658738 -415.37933507 657.72524978 -415.68655396 653.13359451 C-416.00975042 648.34099424 -416.34648768 643.5493446 -416.68164062 638.75756836 C-417.37856132 628.7580723 -418.05801451 618.75745191 -418.72949219 608.75621796 C-418.93497415 605.69632675 -419.14141015 602.63649994 -419.34765625 599.57666016 C-419.80411237 592.78452039 -420.25575423 585.99208684 -420.69750977 579.19897461 C-421.97937459 559.57424298 -423.40853318 539.95975228 -424.81640625 520.34375 C-426.61407059 495.29456717 -428.39606698 470.24479189 -430.1071167 445.18951416 C-431.6040441 423.29184275 -433.17040116 401.39935994 -434.74134064 379.50690079 C-436.49095718 355.12392625 -438.24026143 330.74172078 -439.82958984 306.34765625 C-440.50201622 296.04964556 -441.2118963 285.7547992 -441.9453125 275.4609375 C-442.03802429 274.15640121 -442.13073608 272.85186493 -442.22625732 271.50779724 C-442.68385412 265.07304732 -443.1444678 258.63853623 -443.60986328 252.2043457 C-443.7764781 249.8693113 -443.94298716 247.53426934 -444.109375 245.19921875 C-444.18732803 244.13681976 -444.26528107 243.07442078 -444.34559631 241.97982788 C-445.44267471 226.46752942 -445.44267471 226.46752942 -443.62890625 219.65625 C-443.396875 218.73070312 -443.16484375 217.80515625 -442.92578125 216.8515625 C-441.87890625 214.53125 -441.87890625 214.53125 -439.76953125 213.2109375 C-438.83367187 212.87449219 -438.83367187 212.87449219 -437.87890625 212.53125 C-437.87890625 211.87125 -437.87890625 211.21125 -437.87890625 210.53125 C-425.7478265 202.03030397 -411.30627597 196.17593575 -397.95361328 189.8894043 C-391.60825178 186.89566557 -385.32258413 183.796177 -379.05851746 180.63648987 C-375.47083472 178.82821854 -371.87909764 177.02823007 -368.28515625 175.23242188 C-366.86889026 174.52458928 -365.45263111 173.816743 -364.03637695 173.10888672 C-363.23164948 172.70671936 -362.426922 172.304552 -361.59780884 171.89019775 C-356.70654572 169.44547205 -351.81575431 166.99980283 -346.92489243 164.55427456 C-343.63199332 162.90777073 -340.33906616 161.26132304 -337.04614258 159.61486816 C-335.65076688 158.91718064 -334.25539131 158.21949285 -332.86001587 157.52180481 C-250.89779658 116.54069517 -250.89779658 116.54069517 -248.78980345 115.48670053 C-247.4156478 114.79962143 -246.04149419 114.11253826 -244.66734272 113.4254508 C-241.43514946 111.80933237 -238.20292496 110.19327648 -234.97061825 108.57738495 C-229.85094305 106.01789094 -224.73146136 103.45801948 -219.61390686 100.89428711 C-218.86273842 100.51813011 -218.11156998 100.14197311 -217.33763885 99.75441742 C-215.48405198 98.82605928 -213.63074907 97.89713422 -211.77748108 96.96813965 C-207.9868237 95.08902433 -204.16211731 93.29409711 -200.31640625 91.53125 C-194.25805086 88.71672195 -188.3426129 85.70947513 -182.46801758 82.53125 C-171.90652521 76.82489559 -161.11236416 71.61297565 -150.23925781 66.53125 C-140.24618547 61.84799779 -130.39351593 56.91555868 -120.69140625 51.65625 C-113.90635092 47.98461625 -106.97555862 44.65408027 -99.98950195 41.38330078 C-88.88612626 36.17296118 -77.96340679 30.60507931 -67.04980755 25.01118469 C-61.65055203 22.24480912 -56.24383105 19.49331592 -50.8331728 16.74931335 C-47.2978762 14.95543805 -43.76681367 13.1540338 -40.24365234 11.33642578 C-36.78458164 9.55232313 -33.31592463 7.78830373 -29.83994675 6.03738403 C-28.53276756 5.37464175 -27.22909289 4.70493429 -25.92930984 4.02780151 C-17.34747802 -0.43627566 -9.46424419 -4.06014867 0 0 Z M-17.75390625 13.71875 C-19.16739428 14.46333117 -20.58149793 15.20674439 -21.99609375 15.94921875 C-22.76920898 16.36091309 -23.54232422 16.77260742 -24.33886719 17.19677734 C-29.14490614 19.72174936 -34.01780259 22.11454528 -38.87890625 24.53125 C-40.7958337 25.4890616 -42.71249964 26.44739673 -44.62890625 27.40625 C-58.71223958 34.44791667 -72.79557292 41.48958333 -86.87890625 48.53125 C-87.53950546 48.86157227 -88.20010468 49.19189453 -88.88072205 49.53222656 C-90.20792943 50.19578465 -91.53520958 50.8591972 -92.86256409 51.52246094 C-96.29024968 53.2354747 -99.71645813 54.95135102 -103.14038086 56.671875 C-109.86675106 60.04918553 -116.59862636 63.39456746 -123.44140625 66.53125 C-129.49976164 69.34577805 -135.4151996 72.35302487 -141.28979492 75.53125 C-151.17450988 80.87194285 -161.25428366 85.79660185 -171.44140625 90.53125 C-177.49838682 93.3488982 -183.41502286 96.35292926 -189.28979492 99.53125 C-199.17447693 104.87192504 -209.25413312 109.79698752 -219.44140625 114.53125 C-224.80409438 117.02375847 -230.06042774 119.64077031 -235.25390625 122.46875 C-241.64532461 125.94781834 -248.16579075 129.08706463 -254.75463867 132.17333984 C-261.87429607 135.51168883 -268.90816595 139.0034246 -275.92724609 142.54736328 C-279.24006861 144.21745019 -282.55987302 145.8735506 -285.87890625 147.53125 C-287.21227212 148.19785158 -288.54560548 148.86451821 -289.87890625 149.53125 C-297.87890625 153.53125 -305.87890625 157.53125 -313.87890625 161.53125 C-314.8685437 162.02612915 -314.8685437 162.02612915 -315.87817383 162.53100586 C-317.21381844 163.19874667 -318.54959359 163.86622646 -319.88549805 164.53344727 C-323.18457989 166.18158227 -326.48139451 167.83393885 -329.7734375 169.49609375 C-336.90834317 173.09164379 -344.08026601 176.58115351 -351.31640625 179.96875 C-358.20896508 183.20141993 -364.96544792 186.62533319 -371.67333984 190.22412109 C-378.34728524 193.80217973 -385.109387 197.18716221 -391.89501953 200.54736328 C-395.88839854 202.52783552 -399.87391199 204.52417526 -403.85717773 206.52490234 C-407.30338343 208.25373402 -410.75812719 209.96092306 -414.23046875 211.63671875 C-415.30361328 212.15975586 -415.30361328 212.15975586 -416.3984375 212.69335938 C-417.75452775 213.35379294 -419.11370186 214.0079501 -420.4765625 214.65429688 C-424.83851971 216.78993289 -428.33253167 219.19254601 -431.87890625 222.53125 C-433.10926454 226.22232487 -432.84022068 229.42045176 -432.6171875 233.2421875 C-432.57064529 234.09807465 -432.52410309 234.95396179 -432.47615051 235.83578491 C-431.58926596 251.35778081 -430.39464702 266.86320037 -429.26849365 282.36920166 C-428.7177261 289.96500322 -428.17270372 297.56122102 -427.62677383 305.15737152 C-427.49014057 307.05813904 -427.35342941 308.95890096 -427.21664047 310.85965729 C-426.07326525 326.74813483 -424.96281876 342.63859489 -423.87890625 358.53125 C-422.24450378 382.4726171 -420.53402306 406.40824079 -418.81640625 430.34375 C-417.23511327 452.37954549 -415.65494561 474.41454764 -414.22088623 496.46051025 C-412.76837544 518.72995374 -411.14259181 540.98740253 -409.54455566 563.24676514 C-406.88801006 600.25148416 -406.88801006 600.25148416 -405.671875 617.93359375 C-405.62612398 618.59868391 -405.58037296 619.26377407 -405.53323555 619.94901848 C-405.0763257 626.59624828 -404.62276513 633.24370027 -404.17211914 639.89135742 C-403.82193831 645.04856379 -403.46395328 650.20517399 -403.1003418 655.3614502 C-402.94472701 657.58904075 -402.79216661 659.81684575 -402.6418457 662.0447998 C-402.4002661 665.61116383 -402.14835375 669.17667629 -401.89453125 672.7421875 C-401.82264587 673.83439606 -401.7507605 674.92660461 -401.67669678 676.0519104 C-401.30366917 685.05738082 -401.30366917 685.05738082 -396.83984375 692.48046875 C-395.98648438 693.05410156 -395.133125 693.62773438 -394.25390625 694.21875 C-393.27164063 694.89164063 -392.289375 695.56453125 -391.27734375 696.2578125 C-390.73561523 696.61907227 -390.19388672 696.98033203 -389.63574219 697.35253906 C-387.73516031 698.62769322 -385.85704772 699.93198416 -383.98046875 701.2421875 C-378.20450396 705.26519238 -372.41406449 709.24152036 -366.44140625 712.96875 C-361.62534551 715.98332799 -357.00497884 719.23649023 -352.37890625 722.53125 C-346.97974292 726.37597537 -341.54288402 730.07283184 -335.91796875 733.58203125 C-328.44688192 738.373898 -321.18999601 743.50016137 -313.87890625 748.53125 C-310.69286965 750.72088876 -307.50536513 752.90836944 -304.31640625 755.09375 C-303.53507324 755.62919434 -302.75374023 756.16463867 -301.94873047 756.71630859 C-295.74645231 760.95754406 -289.49942588 765.12891422 -283.23950195 769.28442383 C-277.73249279 772.94580117 -272.28988026 776.6890293 -266.86328125 780.46875 C-264.01342889 782.43828147 -261.14114663 784.36705748 -258.25390625 786.28125 C-252.98948424 789.77231981 -247.77474912 793.33212991 -242.56640625 796.90625 C-236.20206973 801.27276497 -229.81095793 805.59313763 -223.37841797 809.85839844 C-218.09437436 813.36970308 -212.86889417 816.96302038 -207.64770508 820.56689453 C-202.80017395 823.90908048 -197.91126995 827.1837045 -193.00390625 830.4375 C-189.27332602 832.93698875 -185.57520831 835.48146194 -181.87890625 838.03125 C-175.25597692 842.59838331 -168.58700827 847.08989674 -161.87890625 851.53125 C-154.46901356 856.43725038 -147.11667092 861.41812813 -139.80175781 866.46411133 C-135.8493422 869.18716925 -131.87928732 871.87882342 -127.87890625 874.53125 C-123.177288 877.64862732 -118.52223412 880.82812784 -113.87890625 884.03125 C-109.35904258 887.14861569 -104.83067956 890.24765386 -100.25390625 893.28125 C-94.48868421 897.10375738 -88.77769813 901.00371844 -83.06640625 904.90625 C-76.21478635 909.58728131 -69.34650406 914.23857667 -62.43041992 918.82373047 C-57.38073841 922.1791155 -52.37790315 925.60092611 -47.37890625 929.03125 C-39.80488216 934.22582069 -32.2076463 939.37958467 -24.53515625 944.42773438 C-22.92746503 945.49889656 -21.34026001 946.60060914 -19.75390625 947.703125 C-15.97196103 950.27238126 -12.83320387 952.29267559 -8.37890625 953.40625 C-2.79452107 952.0101537 1.46029907 948.82427323 6.12109375 945.53125 C6.91386719 944.97953125 7.70664062 944.4278125 8.5234375 943.859375 C10.14284328 942.72767711 11.75851433 941.59062262 13.37109375 940.44921875 C16.50673443 938.26228754 19.68461355 936.14291183 22.87109375 934.03125 C29.32470613 929.75149483 35.7281043 925.40097567 42.12109375 921.03125 C48.9777747 916.34505438 55.85277663 911.69130102 62.7746582 907.10205078 C68.01236431 903.62184257 73.19056443 900.0579418 78.36621094 896.48632812 C82.13881933 893.8856676 85.92663598 891.31294224 89.74609375 888.78125 C95.57392616 884.91731728 101.34726961 880.97533437 107.12109375 877.03125 C118.61037436 869.18370355 118.61037436 869.18370355 124.12109375 865.53125 C137.08981377 856.92916548 149.89267158 848.074067 162.70605469 839.24291992 C167.44879259 835.97968609 172.23325695 832.78305051 177.03125 829.6015625 C180.56299793 827.23515744 184.06135877 824.82321448 187.55859375 822.40625 C194.84449178 817.37300539 202.20336731 812.4535247 209.58764648 807.56591797 C214.70064755 804.17438454 219.74912102 800.70527973 224.76708984 797.17480469 C228.13970837 794.82005796 231.56420564 792.54831833 234.99609375 790.28125 C242.86261667 785.05919975 250.68559012 779.77406607 258.49609375 774.46875 C259.08536652 774.06854645 259.67463928 773.6683429 260.2817688 773.25601196 C263.94089921 770.77070898 267.59937274 768.28444044 271.25762939 765.79785156 C276.81541774 762.02020839 282.37400197 758.24373855 287.93359375 754.46875 C288.52714661 754.0656662 289.12069946 753.6625824 289.73223877 753.24728394 C296.82692967 748.43023119 303.93490563 743.63495416 311.08251953 738.89672852 C316.21389451 735.48808309 321.284651 731.99342003 326.35449219 728.49414062 C331.20124187 725.15237189 336.08946434 721.87830863 340.99609375 718.625 C345.42130957 715.6601054 349.8018432 712.63152739 354.18603516 709.60644531 C358.26625305 706.79499812 362.36672353 704.02000968 366.49609375 701.28125 C370.28348549 698.76323032 374.06060767 696.2326591 377.80859375 693.65625 C379.02095703 692.82480469 379.02095703 692.82480469 380.2578125 691.9765625 C382.39058281 690.32221236 383.00888334 689.35198319 383.37301636 686.68862915 C383.46270187 685.56199356 383.46270187 685.56199356 383.55419922 684.41259766 C383.6246344 683.55207794 383.69506958 682.69155823 383.76763916 681.80496216 C383.84045105 680.86127777 383.91326294 679.91759338 383.98828125 678.9453125 C384.06753845 677.95755829 384.14679565 676.96980408 384.22845459 675.95211792 C384.4888437 672.68716833 384.74270337 669.42174969 384.99609375 666.15625 C385.17488752 663.88866557 385.35376205 661.62108751 385.53271484 659.35351562 C386.83432871 642.74198232 388.00908976 626.1231792 389.11450195 609.49755859 C389.75129014 599.92072858 390.42055422 590.34905631 391.18359375 580.78125 C391.96437582 570.97440571 392.58825835 561.16240541 393.1789856 551.34240723 C393.87153689 539.89513525 394.7206088 528.46389398 395.62109375 517.03125 C396.51990014 505.59800152 397.37026839 494.16705103 398.05859375 482.71875 C398.97817917 467.46321736 400.00866725 452.21584176 401.05859375 436.96875 C401.18894516 435.07487045 401.18894516 435.07487045 401.32192993 433.14273071 C402.45181988 416.76855997 403.64236615 400.4008089 404.93283081 384.0385437 C405.86192815 372.24210293 406.64776041 360.44508602 407.35424805 348.63305664 C408.02882709 337.55304421 408.87657992 326.49008014 409.74945068 315.4241333 C411.00068728 299.52182158 412.08139713 283.61019177 413.11889648 267.69262695 C413.23678861 265.88622865 413.35470775 264.07983212 413.47265625 262.2734375 C413.52861969 261.41362778 413.58458313 260.55381805 413.64224243 259.66795349 C413.95791109 254.8616276 414.30491154 250.05938417 414.6875 245.2578125 C415.05923603 240.51014684 415.3431164 235.79321559 415.43359375 231.03125 C415.48966797 229.06671875 415.48966797 229.06671875 415.546875 227.0625 C415.03716654 222.83519315 414.21500259 221.42121952 411.12109375 218.53125 C408.72268004 217.10585822 406.4477245 215.88808475 403.93359375 214.71875 C403.23306885 214.38037109 402.53254395 214.04199219 401.81079102 213.69335938 C399.58763027 212.62438485 397.35623075 211.57492967 395.12109375 210.53125 C394.40598633 210.19689941 393.69087891 209.86254883 392.95410156 209.51806641 C388.68377621 207.52306264 388.68377621 207.52306264 384.41162109 205.53198242 C379.08141129 203.03272253 373.88702358 200.33196967 368.71020508 197.53125 C358.8255289 192.19057811 348.74589394 187.26544351 338.55859375 182.53125 C332.51763821 179.72392598 326.6333324 176.71373732 320.78271484 173.53125 C316.15490416 171.03381752 311.4520192 168.74720991 306.68359375 166.53125 C295.85660371 161.49978288 285.18485892 156.21255791 274.68359375 150.53125 C268.72832758 147.31278183 262.66973119 144.38387895 256.53198242 141.53125 C247.14884042 137.16531229 237.86884759 132.59602214 228.78613281 127.63305664 C222.06879299 123.96747063 215.2335815 120.71500353 208.24609375 117.59375 C200.02599014 113.92069857 192.05023465 109.9646631 184.1328125 105.68359375 C178.1996166 102.47704508 172.14802819 99.50761463 166.10498047 96.51513672 C162.77268017 94.86251917 159.44726419 93.19616034 156.12109375 91.53125 C154.78779297 90.86451824 153.45445964 90.19785155 152.12109375 89.53125 C128.12109375 77.53125 128.12109375 77.53125 126.12280273 76.53198242 C124.78390285 75.86261413 123.44487199 75.19350775 122.10571289 74.5246582 C118.85644449 72.90140399 115.60926442 71.27429409 112.3671875 69.63671875 C104.49767701 65.66944487 96.57767204 61.82108533 88.62109375 58.03125 C76.19540605 52.10884912 63.88007847 46.04458193 51.75488281 39.52832031 C40.74937348 33.63148442 29.5210226 28.20238554 18.21704102 22.90454102 C14.30444327 21.06480037 10.41784224 19.19141352 6.5703125 17.21875 C5.49136719 16.66670898 5.49136719 16.66670898 4.390625 16.10351562 C3.04702224 15.4115476 1.70687835 14.71280183 0.37109375 14.00585938 C-6.72091827 10.35400244 -10.78271201 9.85633157 -17.75390625 13.71875 Z "
     fill="#000000"
     transform="translate(520.87890625,27.46875)"
     id="path6"
     style="fill:#999999" />
  <path
     d="M0 0 C2.27701753 1.15650993 4.51054114 2.37529438 6.74414062 3.61352539 C13.26744293 7.14360435 19.82746067 10.49363923 26.55664062 13.61352539 C33.80668509 16.98668041 40.88048733 20.61393687 47.93164062 24.38305664 C53.40290628 27.28966652 58.94032196 29.99935075 64.55664062 32.61352539 C71.80615644 35.98788884 78.88042001 39.61390088 85.93164062 43.38305664 C91.40290628 46.28966652 96.94032196 48.99935075 102.55664062 51.61352539 C109.80615644 54.98788884 116.88042001 58.61390088 123.93164062 62.38305664 C129.40290628 65.28966652 134.94032196 67.99935075 140.55664062 70.61352539 C147.80615644 73.98788884 154.88042001 77.61390088 161.93164062 81.38305664 C167.40292583 84.28967691 172.94047675 86.99899486 178.55664062 89.61352539 C185.62984244 92.91064449 192.54765595 96.42559318 199.43286133 100.09741211 C209.57161963 105.48533764 219.86903911 110.55845868 230.14990234 115.66821289 C233.87187737 117.51888416 237.58966515 119.37783999 241.30664062 121.23852539 C242.54098281 121.85577852 243.77535833 122.47296498 245.00976562 123.09008789 C278.35872396 139.76456706 311.70768229 156.43904622 345.05664062 173.11352539 C345.71732544 173.44384766 346.37801025 173.77416992 347.05871582 174.11450195 C348.38519702 174.77778307 349.71161358 175.44119346 351.03796387 176.10473633 C354.47560237 177.82429531 357.9145082 179.54124761 361.35546875 181.25415039 C362.06413086 181.60735352 362.77279297 181.96055664 363.50292969 182.32446289 C364.84235104 182.9919778 366.18216226 183.6587113 367.52246094 184.32446289 C373.77825114 187.44416549 379.92613727 190.75434547 386.05664062 194.11352539 C383.3143746 197.07062332 380.75782894 199.01564693 377.18164062 200.86352539 C372.82509035 203.16619074 368.51592168 205.53262339 364.24414062 207.98852539 C363.65511963 208.3266626 363.06609863 208.6647998 362.45922852 209.01318359 C361.25622466 209.70380598 360.05334424 210.39464341 358.85058594 211.08569336 C357.09650729 212.09068398 355.33833503 213.08851901 353.58007812 214.08618164 C348.28559832 217.09196419 343.01198825 220.12000979 337.80224609 223.27075195 C335.29786021 224.78433975 332.78432422 226.28248321 330.27148438 227.78198242 C328.65767761 228.75218768 327.04897148 229.73089219 325.44335938 230.71459961 C322.63823658 232.42954968 319.8176897 234.11662305 316.99414062 235.80102539 C316.10138428 236.355 315.20862793 236.90897461 314.28881836 237.47973633 C307.95722042 241.21146643 307.95722042 241.21146643 304.11132812 240.79321289 C302.59925781 239.96176758 302.59925781 239.96176758 301.05664062 239.11352539 C300.28489502 238.7288208 299.51314941 238.34411621 298.71801758 237.94775391 C295.86889222 236.5256561 293.05668987 235.04408712 290.24414062 233.55102539 C289.22312256 233.01380859 288.20210449 232.4765918 287.15014648 231.9230957 C282.53755125 229.49377869 277.93319643 227.04902146 273.33007812 224.60180664 C271.92648707 223.85560985 270.52284335 223.10951209 269.11914062 222.36352539 C268.10062012 221.82211914 268.10062012 221.82211914 267.06152344 221.26977539 C258.55088849 216.76245789 249.91895339 212.49560747 241.27148438 208.25805664 C233.42572988 204.39591748 225.7200323 200.32681722 218.05664062 196.11352539 C209.83608113 191.59502332 201.55759382 187.26505914 193.13623047 183.13500977 C179.32332639 176.35017874 165.649862 169.32705456 152.05664062 162.11352539 C148.82886204 160.40255515 145.59936029 158.69488156 142.36914062 156.98852539 C141.67038818 156.61727539 140.97163574 156.24602539 140.25170898 155.86352539 C135.35646331 153.27739993 130.41794718 150.78547259 125.46289062 148.31665039 C117.35398547 144.2761711 109.29360524 140.14590949 101.24414062 135.98852539 C99.80926715 135.24824768 98.37437089 134.50801412 96.93945312 133.76782227 C92.64424614 131.55153363 88.35030657 129.3327977 84.05664062 127.11352539 C83.40777893 126.77824829 82.75891724 126.44297119 82.09039307 126.09753418 C69.97660433 119.83795956 57.87113379 113.56627457 45.83642578 107.15576172 C41.40111701 104.80187293 36.93057601 102.53062146 32.43164062 100.30102539 C18.86430441 93.57716292 5.48528996 86.47703537 -7.88085938 79.36352539 C-13.75666621 76.23756568 -19.67981276 73.22545949 -25.64428711 70.27270508 C-32.20262596 67.0131283 -38.67652271 63.59728422 -45.15625 60.18481445 C-50.47268036 57.39087713 -55.8112533 54.65357628 -61.19335938 51.98852539 C-66.9523877 49.12861486 -72.68117913 46.21513138 -78.38085938 43.23852539 C-79.12174805 42.85680176 -79.86263672 42.47507813 -80.62597656 42.08178711 C-85.82723608 39.34577199 -85.82723608 39.34577199 -86.94335938 37.11352539 C-85.90179688 36.62883789 -84.86023438 36.14415039 -83.78710938 35.64477539 C-70.54409888 29.46117152 -57.46102139 23.03685934 -44.58740234 16.11572266 C-38.10985967 12.64433707 -31.55657715 9.33651194 -24.95605469 6.10571289 C-22.89973942 5.0920223 -20.85545625 4.05624955 -18.81054688 3.01977539 C-17.48032461 2.3624985 -16.14961319 1.70621044 -14.81835938 1.05102539 C-13.64015625 0.46192383 -12.46195312 -0.12717773 -11.24804688 -0.73413086 C-6.8185215 -2.27870531 -4.24942925 -1.93840171 0 0 Z "
     fill="#000000"
     transform="translate(518.943359375,51.886474609375)"
     id="path7" />
  <path
     d="M0 0 C14.02146234 13.63197728 15.02072708 38.2779699 15.453125 56.65625 C15.86836514 94.22878569 13.71404809 134.76669657 0.25 170.1875 C-0.10578125 171.13109375 -0.4615625 172.0746875 -0.828125 173.046875 C-8.99638825 193.6308984 -21.4570645 212.127127 -37.75 227.1875 C-38.32621094 227.72246094 -38.90242187 228.25742187 -39.49609375 228.80859375 C-55.06489482 242.82375147 -72.80632181 254.33025764 -90.34375 265.67578125 C-95.42917065 268.96743215 -100.45557268 272.33434563 -105.4453125 275.76953125 C-107.81324766 277.22641339 -110.16250252 278.18655408 -112.75 279.1875 C-112.82531738 268.24125506 -112.6361697 257.32321795 -112.28573036 246.3831234 C-112.1954562 243.56211006 -112.1083971 240.74101129 -112.02201843 237.9198761 C-111.89546341 233.79464332 -111.76776575 229.66944846 -111.63909912 225.54428101 C-111.28991612 214.33572954 -110.9491889 203.12692554 -110.61328125 191.91796875 C-110.57796799 190.7400432 -110.54265472 189.56211765 -110.50627136 188.34849739 C-109.94184591 169.43563725 -109.43826439 150.52160782 -108.96897054 131.60619736 C-108.91816349 129.55862929 -108.86721455 127.51106479 -108.8162365 125.46350098 C-108.48537088 112.16497129 -108.15960295 98.86632861 -107.84420109 85.56742191 C-107.72616605 80.62048048 -107.60504941 75.6736175 -107.4832859 70.72676659 C-107.42734661 68.42170948 -107.37287805 66.11661616 -107.31998253 63.8114872 C-107.24737633 60.64920926 -107.16988692 57.48708552 -107.09130859 54.32495117 C-107.07155818 53.40877958 -107.05180777 52.49260799 -107.03145885 51.54867363 C-106.66139431 37.29960723 -106.66139431 37.29960723 -104.28222656 34.39648438 C-103.65799805 34.02845703 -103.03376953 33.66042969 -102.390625 33.28125 C-101.69404785 32.85199219 -100.9974707 32.42273438 -100.27978516 31.98046875 C-99.1512915 31.34044922 -99.1512915 31.34044922 -98 30.6875 C-97.22575684 30.21957031 -96.45151367 29.75164063 -95.65380859 29.26953125 C-94.08726488 28.32501181 -92.51419105 27.39123279 -90.93457031 26.46875 C-88.04103296 24.77169099 -85.21240823 22.97646023 -82.375 21.1875 C-80.77444206 20.21601707 -79.17369047 19.24482505 -77.56835938 18.28125 C-76.25966378 17.49406468 -74.95403339 16.70177526 -73.65039062 15.90625 C-53.69671834 3.7650354 -22.73760513 -14.98614884 0 0 Z "
     fill="#FEFEFD"
     transform="translate(772.75,496.8125)"
     id="path8" />
</svg>
