<?xml version="1.0" encoding="UTF-8"?>
<svg version="1.1" xmlns="http://www.w3.org/2000/svg" width="256" height="256">
<path d="M0 0 C0.58531494 0.27900146 1.17062988 0.55800293 1.77368164 0.84545898 C2.77842529 1.3197937 2.77842529 1.3197937 3.8034668 1.80371094 C4.50648926 2.14619873 5.20951172 2.48868652 5.93383789 2.84155273 C6.6832666 3.20015381 7.43269531 3.55875488 8.20483398 3.92822266 C14.10866193 6.78034659 19.86238535 9.86679288 25.62597656 12.99169922 C30.4818007 15.57031245 35.4417582 17.91564869 40.41040039 20.26733398 C52.00745201 25.78894117 63.56389493 31.38832771 75.07446289 37.08813477 C77.22210778 38.14840218 79.37259552 39.20292725 81.52563477 40.25219727 C84.6944979 41.79732584 87.85396144 43.36030587 91.01196289 44.92749023 C91.97426819 45.39214691 92.93657349 45.85680359 93.92803955 46.33554077 C94.81457214 46.78015656 95.70110474 47.22477234 96.61450195 47.68286133 C97.39118225 48.06493744 98.16786255 48.44701355 98.96807861 48.84066772 C101.61538507 50.71806376 102.6823981 52.30869807 103.99633789 55.27905273 C104.18746948 58.44499207 104.18746948 58.44499207 103.92553711 62.06494141 C103.88195824 62.73047846 103.83837936 63.39601551 103.79347992 64.08172035 C103.64503298 66.28822607 103.47305696 68.4922394 103.30102539 70.69702148 C103.19146185 72.25849911 103.08338833 73.82008191 102.97671509 75.38175964 C102.68770401 79.55157427 102.3784045 83.71964077 102.0642395 87.88762665 C101.7434414 92.17641714 101.43791157 96.46629346 101.13110352 100.75610352 C100.76506822 105.86111627 100.39712637 110.9659598 100.02032471 116.07019043 C99.32460564 125.5152301 98.69292583 134.95983571 98.16040039 144.41577148 C97.99028113 147.29049148 97.81856847 150.16511139 97.64630127 153.03970337 C97.54704522 154.77005908 97.45525805 156.50086085 97.37127686 158.23202515 C97.25660808 160.56977655 97.11432063 162.90423226 96.96508789 165.23999023 C96.89741211 166.49602051 96.82973633 167.75205078 96.76000977 169.04614258 C95.52625944 174.26907154 91.80713184 176.97268589 87.44946289 179.79467773 C86.78390381 180.23126709 86.11834473 180.66785645 85.43261719 181.11767578 C84.35040894 181.81630737 84.35040894 181.81630737 83.24633789 182.52905273 C81.61142377 183.60205423 79.97735442 184.67634365 78.34399414 185.75170898 C77.03712646 186.61046631 77.03712646 186.61046631 75.70385742 187.48657227 C70.99955956 190.60099561 66.34389373 193.78647711 61.68383789 196.96655273 C51.57286262 203.8551645 41.44533312 210.71898452 31.3085022 217.56948853 C29.70988768 218.64985095 28.11139313 219.73039092 26.51303101 220.81112671 C25.36914413 221.58451889 25.36914413 221.58451889 24.20214844 222.37353516 C23.44977402 222.88237747 22.6973996 223.39121979 21.92222595 223.91548157 C20.43677259 224.91798372 18.94970415 225.91809731 17.46095276 226.91569519 C13.85908818 229.33046644 10.28557229 231.77298198 6.75512695 234.29125977 C6.08007111 234.76414932 5.40501526 235.23703888 4.70950317 235.72425842 C3.44541669 236.61070516 2.19043829 237.51034907 0.94699097 238.42552185 C-1.91183239 240.40906467 -3.62952365 241.28547634 -7.14624023 241.22509766 C-10.08127486 240.25335644 -12.02020933 239.1827688 -14.48022461 237.32592773 C-18.52757977 234.35796793 -22.61486299 231.4737999 -26.77709961 228.66967773 C-28.01178425 227.83432531 -29.24640172 226.99887362 -30.48095703 226.16333008 C-31.11552826 225.73445496 -31.75009949 225.30557983 -32.40390015 224.8637085 C-35.13466238 223.01810502 -37.86421188 221.17071121 -40.59385681 219.32345581 C-42.00205 218.37050544 -43.41030418 217.4176452 -44.81861877 216.46487427 C-49.30543372 213.42925126 -53.79038562 210.39090257 -58.27319336 207.34936523 C-59.14000984 206.76131104 -59.14000984 206.76131104 -60.02433777 206.16137695 C-62.88142218 204.22272629 -65.73757067 202.28271505 -68.59228516 200.34057617 C-74.02599995 196.64553138 -79.46725613 192.96303852 -84.9329071 189.31533813 C-87.55640954 187.56354582 -90.17600908 185.80596608 -92.7953186 184.0479126 C-94.05019008 183.20804578 -95.30698442 182.37104426 -96.56576538 181.53704834 C-98.30385045 180.38524375 -100.03518441 179.22391083 -101.76538086 178.06030273 C-102.75497803 177.40094727 -103.7445752 176.7415918 -104.76416016 176.06225586 C-107.42704224 173.94193637 -107.86457881 172.45895739 -108.25723553 169.12787819 C-108.31790612 168.28908812 -108.37857672 167.45029804 -108.44108582 166.58609009 C-108.51266403 165.62156418 -108.58424225 164.65703827 -108.6579895 163.6632843 C-108.73234222 162.60659042 -108.80669495 161.54989655 -108.88330078 160.46118164 C-109.00538155 158.7900808 -109.00538155 158.7900808 -109.12992859 157.08522034 C-109.39826865 153.39232347 -109.6604441 149.69902455 -109.92163086 146.00561523 C-110.10434534 143.44355197 -110.28706947 140.8814894 -110.46980286 138.31942749 C-110.80305307 133.63176123 -111.13405399 128.9439492 -111.46248168 124.25594294 C-111.9456945 117.35874875 -112.43910287 110.46238506 -112.94143504 103.56655753 C-113.37605348 97.59091962 -113.79780645 91.614444 -114.21489906 85.63755417 C-114.39405739 83.09593654 -114.57711708 80.55459085 -114.7641201 78.01353836 C-115.02449049 74.46160191 -115.27015743 70.90893826 -115.51220703 67.35571289 C-115.59263245 66.30306747 -115.67305786 65.25042206 -115.75592041 64.1658783 C-115.81903915 63.19571274 -115.8821579 62.22554718 -115.94718933 61.22598267 C-116.00672885 60.38643854 -116.06626837 59.54689442 -116.12761211 58.68190956 C-115.98110141 55.84169795 -115.24456172 53.82690362 -114.00366211 51.27905273 C-112.33398438 49.9362793 -112.33398438 49.9362793 -110.32006836 48.91967773 C-109.56693359 48.53086426 -108.81379883 48.14205078 -108.0378418 47.74145508 C-107.2221875 47.3413623 -106.4065332 46.94126953 -105.56616211 46.52905273 C-104.72085938 46.09931152 -103.87555664 45.66957031 -103.00463867 45.22680664 C-96.34538181 41.86759247 -89.60180785 38.68216 -82.84277344 35.52954102 C-78.06306299 33.29155938 -73.38443394 30.93465183 -68.75366211 28.40405273 C-61.81513586 24.62273949 -54.71541657 21.2261309 -47.56542969 17.86450195 C-41.67561018 15.080921 -35.85270223 12.1953309 -30.06616211 9.20483398 C-28.70503159 8.5061212 -27.34378501 7.80763446 -25.98242188 7.109375 C-23.97106703 6.07748564 -21.96323467 5.04069829 -19.96383667 3.98580933 C-18.09745092 3.00148038 -16.22184441 2.03720166 -14.34350586 1.07592773 C-12.72496704 0.23046387 -12.72496704 0.23046387 -11.07373047 -0.63208008 C-6.89169717 -2.11533006 -4.09228407 -1.47246434 0 0 Z " fill="#F9FAF9" transform="translate(134.003662109375,7.720947265625)"/>
<path d="M0 0 C0.58531494 0.27900146 1.17062988 0.55800293 1.77368164 0.84545898 C2.77842529 1.3197937 2.77842529 1.3197937 3.8034668 1.80371094 C4.50648926 2.14619873 5.20951172 2.48868652 5.93383789 2.84155273 C6.6832666 3.20015381 7.43269531 3.55875488 8.20483398 3.92822266 C14.10866193 6.78034659 19.86238535 9.86679288 25.62597656 12.99169922 C30.4818007 15.57031245 35.4417582 17.91564869 40.41040039 20.26733398 C52.00745201 25.78894117 63.56389493 31.38832771 75.07446289 37.08813477 C77.22210778 38.14840218 79.37259552 39.20292725 81.52563477 40.25219727 C84.6944979 41.79732584 87.85396144 43.36030587 91.01196289 44.92749023 C91.97426819 45.39214691 92.93657349 45.85680359 93.92803955 46.33554077 C94.81457214 46.78015656 95.70110474 47.22477234 96.61450195 47.68286133 C97.39118225 48.06493744 98.16786255 48.44701355 98.96807861 48.84066772 C101.61538507 50.71806376 102.6823981 52.30869807 103.99633789 55.27905273 C104.18746948 58.44499207 104.18746948 58.44499207 103.92553711 62.06494141 C103.88195824 62.73047846 103.83837936 63.39601551 103.79347992 64.08172035 C103.64503298 66.28822607 103.47305696 68.4922394 103.30102539 70.69702148 C103.19146185 72.25849911 103.08338833 73.82008191 102.97671509 75.38175964 C102.68770401 79.55157427 102.3784045 83.71964077 102.0642395 87.88762665 C101.7434414 92.17641714 101.43791157 96.46629346 101.13110352 100.75610352 C100.76506822 105.86111627 100.39712637 110.9659598 100.02032471 116.07019043 C99.32460564 125.5152301 98.69292583 134.95983571 98.16040039 144.41577148 C97.99028113 147.29049148 97.81856847 150.16511139 97.64630127 153.03970337 C97.54704522 154.77005908 97.45525805 156.50086085 97.37127686 158.23202515 C97.25660808 160.56977655 97.11432063 162.90423226 96.96508789 165.23999023 C96.89741211 166.49602051 96.82973633 167.75205078 96.76000977 169.04614258 C95.52625944 174.26907154 91.80713184 176.97268589 87.44946289 179.79467773 C86.78390381 180.23126709 86.11834473 180.66785645 85.43261719 181.11767578 C84.35040894 181.81630737 84.35040894 181.81630737 83.24633789 182.52905273 C81.61142377 183.60205423 79.97735442 184.67634365 78.34399414 185.75170898 C77.03712646 186.61046631 77.03712646 186.61046631 75.70385742 187.48657227 C70.99955956 190.60099561 66.34389373 193.78647711 61.68383789 196.96655273 C51.57286262 203.8551645 41.44533312 210.71898452 31.3085022 217.56948853 C29.70988768 218.64985095 28.11139313 219.73039092 26.51303101 220.81112671 C25.36914413 221.58451889 25.36914413 221.58451889 24.20214844 222.37353516 C23.44977402 222.88237747 22.6973996 223.39121979 21.92222595 223.91548157 C20.43677259 224.91798372 18.94970415 225.91809731 17.46095276 226.91569519 C13.85908818 229.33046644 10.28557229 231.77298198 6.75512695 234.29125977 C6.08007111 234.76414932 5.40501526 235.23703888 4.70950317 235.72425842 C3.44541669 236.61070516 2.19043829 237.51034907 0.94699097 238.42552185 C-1.91183239 240.40906467 -3.62952365 241.28547634 -7.14624023 241.22509766 C-10.08127486 240.25335644 -12.02020933 239.1827688 -14.48022461 237.32592773 C-18.52757977 234.35796793 -22.61486299 231.4737999 -26.77709961 228.66967773 C-28.01178425 227.83432531 -29.24640172 226.99887362 -30.48095703 226.16333008 C-31.11552826 225.73445496 -31.75009949 225.30557983 -32.40390015 224.8637085 C-35.13466238 223.01810502 -37.86421188 221.17071121 -40.59385681 219.32345581 C-42.00205 218.37050544 -43.41030418 217.4176452 -44.81861877 216.46487427 C-49.30543372 213.42925126 -53.79038562 210.39090257 -58.27319336 207.34936523 C-59.14000984 206.76131104 -59.14000984 206.76131104 -60.02433777 206.16137695 C-62.88142218 204.22272629 -65.73757067 202.28271505 -68.59228516 200.34057617 C-74.02599995 196.64553138 -79.46725613 192.96303852 -84.9329071 189.31533813 C-87.55640954 187.56354582 -90.17600908 185.80596608 -92.7953186 184.0479126 C-94.05019008 183.20804578 -95.30698442 182.37104426 -96.56576538 181.53704834 C-98.30385045 180.38524375 -100.03518441 179.22391083 -101.76538086 178.06030273 C-102.75497803 177.40094727 -103.7445752 176.7415918 -104.76416016 176.06225586 C-107.42704224 173.94193637 -107.86457881 172.45895739 -108.25723553 169.12787819 C-108.31790612 168.28908812 -108.37857672 167.45029804 -108.44108582 166.58609009 C-108.51266403 165.62156418 -108.58424225 164.65703827 -108.6579895 163.6632843 C-108.73234222 162.60659042 -108.80669495 161.54989655 -108.88330078 160.46118164 C-109.00538155 158.7900808 -109.00538155 158.7900808 -109.12992859 157.08522034 C-109.39826865 153.39232347 -109.6604441 149.69902455 -109.92163086 146.00561523 C-110.10434534 143.44355197 -110.28706947 140.8814894 -110.46980286 138.31942749 C-110.80305307 133.63176123 -111.13405399 128.9439492 -111.46248168 124.25594294 C-111.9456945 117.35874875 -112.43910287 110.46238506 -112.94143504 103.56655753 C-113.37605348 97.59091962 -113.79780645 91.614444 -114.21489906 85.63755417 C-114.39405739 83.09593654 -114.57711708 80.55459085 -114.7641201 78.01353836 C-115.02449049 74.46160191 -115.27015743 70.90893826 -115.51220703 67.35571289 C-115.59263245 66.30306747 -115.67305786 65.25042206 -115.75592041 64.1658783 C-115.81903915 63.19571274 -115.8821579 62.22554718 -115.94718933 61.22598267 C-116.00672885 60.38643854 -116.06626837 59.54689442 -116.12761211 58.68190956 C-115.98110141 55.84169795 -115.24456172 53.82690362 -114.00366211 51.27905273 C-112.33398438 49.9362793 -112.33398438 49.9362793 -110.32006836 48.91967773 C-109.56693359 48.53086426 -108.81379883 48.14205078 -108.0378418 47.74145508 C-107.2221875 47.3413623 -106.4065332 46.94126953 -105.56616211 46.52905273 C-104.72085938 46.09931152 -103.87555664 45.66957031 -103.00463867 45.22680664 C-96.34538181 41.86759247 -89.60180785 38.68216 -82.84277344 35.52954102 C-78.06306299 33.29155938 -73.38443394 30.93465183 -68.75366211 28.40405273 C-61.81513586 24.62273949 -54.71541657 21.2261309 -47.56542969 17.86450195 C-41.67561018 15.080921 -35.85270223 12.1953309 -30.06616211 9.20483398 C-28.70503159 8.5061212 -27.34378501 7.80763446 -25.98242188 7.109375 C-23.97106703 6.07748564 -21.96323467 5.04069829 -19.96383667 3.98580933 C-18.09745092 3.00148038 -16.22184441 2.03720166 -14.34350586 1.07592773 C-12.72496704 0.23046387 -12.72496704 0.23046387 -11.07373047 -0.63208008 C-6.89169717 -2.11533006 -4.09228407 -1.47246434 0 0 Z M-13.08178711 4.62280273 C-14.06985352 5.12328125 -15.05791992 5.62375977 -16.07592773 6.1394043 C-17.12458008 6.68048828 -18.17323242 7.22157227 -19.25366211 7.77905273 C-21.43594938 8.88843638 -23.61824105 9.99781137 -25.80053711 11.10717773 C-27.39671875 11.92412109 -27.39671875 11.92412109 -29.02514648 12.75756836 C-32.83926004 14.70589259 -36.66932588 16.62093825 -40.50366211 18.52905273 C-44.24817937 20.39821436 -47.99067264 22.27112148 -51.72631836 24.15795898 C-59.60633578 28.13029597 -67.53663847 31.98402491 -75.50366211 35.77905273 C-93.85559609 43.97341337 -93.85559609 43.97341337 -111.00366211 54.27905273 C-111.00366211 55.26905273 -111.00366211 56.25905273 -111.00366211 57.27905273 C-109.20576417 58.74653529 -109.20576417 58.74653529 -106.77319336 60.03686523 C-105.84015381 60.57102051 -104.90711426 61.10517578 -103.94580078 61.65551758 C-102.91302002 62.23253418 -101.88023926 62.80955078 -100.81616211 63.40405273 C-98.59961954 64.66898279 -96.38349125 65.93463898 -94.16772461 67.20092773 C-92.98318931 67.87351545 -91.79861849 68.54604059 -90.61401367 69.21850586 C-85.21588415 72.29074265 -79.86273462 75.43974151 -74.50796509 78.58673096 C-72.67684612 79.66246298 -70.84465572 80.73634934 -69.01220703 81.80981445 C-62.40806966 85.68038275 -55.81725293 89.57247224 -49.23960876 93.48788452 C-38.87062382 99.65998054 -28.48149756 105.79313946 -18.00366211 111.77905273 C-16.5517749 112.61678223 -16.5517749 112.61678223 -15.07055664 113.47143555 C-14.18223145 113.97513672 -13.29390625 114.47883789 -12.37866211 114.99780273 C-11.60264648 115.4405957 -10.82663086 115.88338867 -10.02709961 116.33959961 C-7.92197267 117.48960839 -7.92197267 117.48960839 -5.00366211 117.27905273 C-5.00366211 156.54905273 -5.00366211 195.81905273 -5.00366211 236.27905273 C-0.50596754 234.47997491 3.09840175 232.36105497 7.04321289 229.65014648 C8.06213371 228.95828247 8.06213371 228.95828247 9.10163879 228.25244141 C11.31957965 226.74489306 13.53291649 225.23072697 15.74633789 223.71655273 C17.2954245 222.66214034 18.84482533 221.60818945 20.39453125 220.5546875 C24.23872104 217.93991022 28.07943628 215.32008922 31.91864014 212.69799805 C35.82577699 210.02965348 39.73464684 207.363872 43.64746094 204.70385742 C45.59102788 203.37717944 47.52871242 202.04184322 49.46044922 200.69799805 C54.7113909 197.07037181 59.99918882 193.64400281 65.49787903 190.40769958 C68.57711102 188.58538358 71.62350519 186.71153397 74.66915894 184.83377075 C76.15619374 183.93602727 77.65807145 183.06233784 79.17483521 182.21578979 C87.48457852 177.70228615 87.48457852 177.70228615 92.80404663 170.2164917 C93.9519706 165.2090806 93.99958947 160.18851371 93.98153687 155.07119751 C94.00164273 151.27831903 94.27307098 147.51794007 94.53860474 143.73554993 C94.74569531 140.74758864 94.92107363 137.75931852 95.08691406 134.76879883 C96.20072602 114.7162192 97.48091891 94.68650128 99.08203125 74.66674805 C99.14356384 73.88476044 99.20509644 73.10277283 99.26849365 72.29708862 C99.43236439 70.21972628 99.6002825 68.14268428 99.76855469 66.06567383 C99.9309677 63.3657534 100.02078179 60.74067701 100.01057434 58.04238892 C100.00587631 56.80048798 100.00117828 55.55858704 99.99633789 54.27905273 C86.51038331 47.48936781 73.01985973 40.70883088 59.52383804 33.93917847 C53.25759647 30.79574233 46.99288699 27.6493223 40.73168945 24.49584961 C34.6923514 21.45412769 28.64888378 18.42076564 22.60277557 15.39251709 C20.29364355 14.23424799 17.98592453 13.07315758 15.67963409 11.90924072 C12.4558591 10.28289267 9.22726273 8.66653496 5.99731445 7.05249023 C4.5601709 6.32313263 4.5601709 6.32313263 3.09399414 5.57904053 C2.21342346 5.14150452 1.33285278 4.70396851 0.42559814 4.25317383 C-0.33764645 3.86970795 -1.10089104 3.48624207 -1.88726425 3.09115601 C-6.29224669 1.40087805 -9.13661216 2.60340322 -13.08178711 4.62280273 Z " fill="#0A0E0F" transform="translate(134.003662109375,7.720947265625)"/>
<path d="M0 0 C5.27534955 4.17303771 7.78703283 9.39167065 9.53125 15.78125 C10.02736875 20.25638697 10.00204604 24.65887807 9.90625 29.15625 C9.90496094 30.29835938 9.90367187 31.44046875 9.90234375 32.6171875 C9.79305715 43.30298835 8.36030291 53.46956048 4.90625 63.59375 C4.64900146 64.35292725 4.39175293 65.11210449 4.12670898 65.89428711 C0.11329548 77.26542763 -5.54608044 87.6488825 -13.46875 96.78125 C-14.09910156 97.5546875 -14.72945313 98.328125 -15.37890625 99.125 C-27.26240414 113.16307602 -43.13055905 122.77235911 -58.36914062 132.74121094 C-61.46374842 134.77795816 -64.53921873 136.8406718 -67.609375 138.9140625 C-68.57536621 139.5652002 -69.54135742 140.21633789 -70.53662109 140.88720703 C-72.37482886 142.12749368 -74.2111682 143.37055508 -76.04541016 144.61669922 C-76.86315918 145.16600098 -77.6809082 145.71530273 -78.5234375 146.28125 C-79.23999512 146.7659375 -79.95655273 147.250625 -80.69482422 147.75 C-82.46875 148.78125 -82.46875 148.78125 -84.46875 148.78125 C-84.46875 111.82125 -84.46875 74.86125 -84.46875 36.78125 C-77.53875 32.82125 -70.60875 28.86125 -63.46875 24.78125 C-59.71109003 22.58381543 -55.95906192 20.38227921 -52.21875 18.15625 C-51.31745361 17.62338379 -50.41615723 17.09051758 -49.48754883 16.54150391 C-45.18540715 13.99706726 -40.89375869 11.43739732 -36.62109375 8.84375 C-35.8640918 8.38822754 -35.10708984 7.93270508 -34.32714844 7.46337891 C-32.94183442 6.62926158 -31.56051343 5.78845127 -30.18457031 4.93896484 C-21.55451922 -0.23594706 -9.70311404 -4.7901449 0 0 Z " fill="#110E0A" transform="translate(217.46875,89.21875)"/>
<path d="M0 0 C0.58531494 0.27900146 1.17062988 0.55800293 1.77368164 0.84545898 C2.77842529 1.3197937 2.77842529 1.3197937 3.8034668 1.80371094 C4.50648926 2.14619873 5.20951172 2.48868652 5.93383789 2.84155273 C6.6832666 3.20015381 7.43269531 3.55875488 8.20483398 3.92822266 C14.10866193 6.78034659 19.86238535 9.86679288 25.62597656 12.99169922 C30.4818007 15.57031245 35.4417582 17.91564869 40.41040039 20.26733398 C52.00745201 25.78894117 63.56389493 31.38832771 75.07446289 37.08813477 C77.22210778 38.14840218 79.37259552 39.20292725 81.52563477 40.25219727 C84.6944979 41.79732584 87.85396144 43.36030587 91.01196289 44.92749023 C91.97426819 45.39214691 92.93657349 45.85680359 93.92803955 46.33554077 C94.81457214 46.78015656 95.70110474 47.22477234 96.61450195 47.68286133 C97.39118225 48.06493744 98.16786255 48.44701355 98.96807861 48.84066772 C101.61538507 50.71806376 102.6823981 52.30869807 103.99633789 55.27905273 C104.18746948 58.44499207 104.18746948 58.44499207 103.92553711 62.06494141 C103.88195824 62.73047846 103.83837936 63.39601551 103.79347992 64.08172035 C103.64503298 66.28822607 103.47305696 68.4922394 103.30102539 70.69702148 C103.19146185 72.25849911 103.08338833 73.82008191 102.97671509 75.38175964 C102.68770401 79.55157427 102.3784045 83.71964077 102.0642395 87.88762665 C101.7434414 92.17641714 101.43791157 96.46629346 101.13110352 100.75610352 C100.76506822 105.86111627 100.39712637 110.9659598 100.02032471 116.07019043 C99.32460564 125.5152301 98.69292583 134.95983571 98.16040039 144.41577148 C97.99028113 147.29049148 97.81856847 150.16511139 97.64630127 153.03970337 C97.54704522 154.77005908 97.45525805 156.50086085 97.37127686 158.23202515 C97.25660808 160.56977655 97.11432063 162.90423226 96.96508789 165.23999023 C96.89741211 166.49602051 96.82973633 167.75205078 96.76000977 169.04614258 C95.52625944 174.26907154 91.80713184 176.97268589 87.44946289 179.79467773 C86.78390381 180.23126709 86.11834473 180.66785645 85.43261719 181.11767578 C84.35040894 181.81630737 84.35040894 181.81630737 83.24633789 182.52905273 C81.61142377 183.60205423 79.97735442 184.67634365 78.34399414 185.75170898 C77.03712646 186.61046631 77.03712646 186.61046631 75.70385742 187.48657227 C70.99955956 190.60099561 66.34389373 193.78647711 61.68383789 196.96655273 C51.57286262 203.8551645 41.44533312 210.71898452 31.3085022 217.56948853 C29.70988768 218.64985095 28.11139313 219.73039092 26.51303101 220.81112671 C25.36914413 221.58451889 25.36914413 221.58451889 24.20214844 222.37353516 C23.44977402 222.88237747 22.6973996 223.39121979 21.92222595 223.91548157 C20.43677259 224.91798372 18.94970415 225.91809731 17.46095276 226.91569519 C13.85908818 229.33046644 10.28557229 231.77298198 6.75512695 234.29125977 C6.08007111 234.76414932 5.40501526 235.23703888 4.70950317 235.72425842 C3.44541669 236.61070516 2.19043829 237.51034907 0.94699097 238.42552185 C-1.91183239 240.40906467 -3.62952365 241.28547634 -7.14624023 241.22509766 C-10.08127486 240.25335644 -12.02020933 239.1827688 -14.48022461 237.32592773 C-18.52757977 234.35796793 -22.61486299 231.4737999 -26.77709961 228.66967773 C-28.01178425 227.83432531 -29.24640172 226.99887362 -30.48095703 226.16333008 C-31.11552826 225.73445496 -31.75009949 225.30557983 -32.40390015 224.8637085 C-35.13466238 223.01810502 -37.86421188 221.17071121 -40.59385681 219.32345581 C-42.00205 218.37050544 -43.41030418 217.4176452 -44.81861877 216.46487427 C-49.30543372 213.42925126 -53.79038562 210.39090257 -58.27319336 207.34936523 C-59.14000984 206.76131104 -59.14000984 206.76131104 -60.02433777 206.16137695 C-62.88142218 204.22272629 -65.73757067 202.28271505 -68.59228516 200.34057617 C-74.02599995 196.64553138 -79.46725613 192.96303852 -84.9329071 189.31533813 C-87.55640954 187.56354582 -90.17600908 185.80596608 -92.7953186 184.0479126 C-94.05019008 183.20804578 -95.30698442 182.37104426 -96.56576538 181.53704834 C-98.30385045 180.38524375 -100.03518441 179.22391083 -101.76538086 178.06030273 C-102.75497803 177.40094727 -103.7445752 176.7415918 -104.76416016 176.06225586 C-107.42704224 173.94193637 -107.86457881 172.45895739 -108.25723553 169.12787819 C-108.31790612 168.28908812 -108.37857672 167.45029804 -108.44108582 166.58609009 C-108.51266403 165.62156418 -108.58424225 164.65703827 -108.6579895 163.6632843 C-108.73234222 162.60659042 -108.80669495 161.54989655 -108.88330078 160.46118164 C-109.00538155 158.7900808 -109.00538155 158.7900808 -109.12992859 157.08522034 C-109.39826865 153.39232347 -109.6604441 149.69902455 -109.92163086 146.00561523 C-110.10434534 143.44355197 -110.28706947 140.8814894 -110.46980286 138.31942749 C-110.80305307 133.63176123 -111.13405399 128.9439492 -111.46248168 124.25594294 C-111.9456945 117.35874875 -112.43910287 110.46238506 -112.94143504 103.56655753 C-113.37605348 97.59091962 -113.79780645 91.614444 -114.21489906 85.63755417 C-114.39405739 83.09593654 -114.57711708 80.55459085 -114.7641201 78.01353836 C-115.02449049 74.46160191 -115.27015743 70.90893826 -115.51220703 67.35571289 C-115.59263245 66.30306747 -115.67305786 65.25042206 -115.75592041 64.1658783 C-115.81903915 63.19571274 -115.8821579 62.22554718 -115.94718933 61.22598267 C-116.00672885 60.38643854 -116.06626837 59.54689442 -116.12761211 58.68190956 C-115.98110141 55.84169795 -115.24456172 53.82690362 -114.00366211 51.27905273 C-112.33398438 49.9362793 -112.33398438 49.9362793 -110.32006836 48.91967773 C-109.56693359 48.53086426 -108.81379883 48.14205078 -108.0378418 47.74145508 C-107.2221875 47.3413623 -106.4065332 46.94126953 -105.56616211 46.52905273 C-104.72085938 46.09931152 -103.87555664 45.66957031 -103.00463867 45.22680664 C-96.34538181 41.86759247 -89.60180785 38.68216 -82.84277344 35.52954102 C-78.06306299 33.29155938 -73.38443394 30.93465183 -68.75366211 28.40405273 C-61.81513586 24.62273949 -54.71541657 21.2261309 -47.56542969 17.86450195 C-41.67561018 15.080921 -35.85270223 12.1953309 -30.06616211 9.20483398 C-28.70503159 8.5061212 -27.34378501 7.80763446 -25.98242188 7.109375 C-23.97106703 6.07748564 -21.96323467 5.04069829 -19.96383667 3.98580933 C-18.09745092 3.00148038 -16.22184441 2.03720166 -14.34350586 1.07592773 C-12.72496704 0.23046387 -12.72496704 0.23046387 -11.07373047 -0.63208008 C-6.89169717 -2.11533006 -4.09228407 -1.47246434 0 0 Z M-13.08178711 4.62280273 C-14.06985352 5.12328125 -15.05791992 5.62375977 -16.07592773 6.1394043 C-17.12458008 6.68048828 -18.17323242 7.22157227 -19.25366211 7.77905273 C-21.43594938 8.88843638 -23.61824105 9.99781137 -25.80053711 11.10717773 C-27.39671875 11.92412109 -27.39671875 11.92412109 -29.02514648 12.75756836 C-32.83926004 14.70589259 -36.66932588 16.62093825 -40.50366211 18.52905273 C-44.24817937 20.39821436 -47.99067264 22.27112148 -51.72631836 24.15795898 C-59.60633578 28.13029597 -67.53663847 31.98402491 -75.50366211 35.77905273 C-93.85559609 43.97341337 -93.85559609 43.97341337 -111.00366211 54.27905273 C-111.00366211 55.26905273 -111.00366211 56.25905273 -111.00366211 57.27905273 C-109.20576417 58.74653529 -109.20576417 58.74653529 -106.77319336 60.03686523 C-105.84015381 60.57102051 -104.90711426 61.10517578 -103.94580078 61.65551758 C-102.91302002 62.23253418 -101.88023926 62.80955078 -100.81616211 63.40405273 C-98.59961954 64.66898279 -96.38349125 65.93463898 -94.16772461 67.20092773 C-92.98318931 67.87351545 -91.79861849 68.54604059 -90.61401367 69.21850586 C-85.21588415 72.29074265 -79.86273462 75.43974151 -74.50796509 78.58673096 C-72.67684612 79.66246298 -70.84465572 80.73634934 -69.01220703 81.80981445 C-62.40806966 85.68038275 -55.81725293 89.57247224 -49.23960876 93.48788452 C-38.87062382 99.65998054 -28.48149756 105.79313946 -18.00366211 111.77905273 C-16.5517749 112.61678223 -16.5517749 112.61678223 -15.07055664 113.47143555 C-14.18223145 113.97513672 -13.29390625 114.47883789 -12.37866211 114.99780273 C-11.60264648 115.4405957 -10.82663086 115.88338867 -10.02709961 116.33959961 C-7.92197267 117.48960839 -7.92197267 117.48960839 -5.00366211 117.27905273 C-5.00366211 156.54905273 -5.00366211 195.81905273 -5.00366211 236.27905273 C-0.50596754 234.47997491 3.09840175 232.36105497 7.04321289 229.65014648 C8.06213371 228.95828247 8.06213371 228.95828247 9.10163879 228.25244141 C11.31957965 226.74489306 13.53291649 225.23072697 15.74633789 223.71655273 C17.2954245 222.66214034 18.84482533 221.60818945 20.39453125 220.5546875 C24.23872104 217.93991022 28.07943628 215.32008922 31.91864014 212.69799805 C35.82577699 210.02965348 39.73464684 207.363872 43.64746094 204.70385742 C45.59102788 203.37717944 47.52871242 202.04184322 49.46044922 200.69799805 C54.7113909 197.07037181 59.99918882 193.64400281 65.49787903 190.40769958 C68.57711102 188.58538358 71.62350519 186.71153397 74.66915894 184.83377075 C76.15619374 183.93602727 77.65807145 183.06233784 79.17483521 182.21578979 C87.48457852 177.70228615 87.48457852 177.70228615 92.80404663 170.2164917 C93.9519706 165.2090806 93.99958947 160.18851371 93.98153687 155.07119751 C94.00164273 151.27831903 94.27307098 147.51794007 94.53860474 143.73554993 C94.74569531 140.74758864 94.92107363 137.75931852 95.08691406 134.76879883 C96.20072602 114.7162192 97.48091891 94.68650128 99.08203125 74.66674805 C99.14356384 73.88476044 99.20509644 73.10277283 99.26849365 72.29708862 C99.43236439 70.21972628 99.6002825 68.14268428 99.76855469 66.06567383 C99.9309677 63.3657534 100.02078179 60.74067701 100.01057434 58.04238892 C100.00587631 56.80048798 100.00117828 55.55858704 99.99633789 54.27905273 C86.51038331 47.48936781 73.01985973 40.70883088 59.52383804 33.93917847 C53.25759647 30.79574233 46.99288699 27.6493223 40.73168945 24.49584961 C34.6923514 21.45412769 28.64888378 18.42076564 22.60277557 15.39251709 C20.29364355 14.23424799 17.98592453 13.07315758 15.67963409 11.90924072 C12.4558591 10.28289267 9.22726273 8.66653496 5.99731445 7.05249023 C4.5601709 6.32313263 4.5601709 6.32313263 3.09399414 5.57904053 C2.21342346 5.14150452 1.33285278 4.70396851 0.42559814 4.25317383 C-0.33764645 3.86970795 -1.10089104 3.48624207 -1.88726425 3.09115601 C-6.29224669 1.40087805 -9.13661216 2.60340322 -13.08178711 4.62280273 Z M-108.00366211 62.27905273 C-108.03291713 65.96653582 -108.05054629 69.65398865 -108.06616211 73.34155273 C-108.07454102 74.37989258 -108.08291992 75.41823242 -108.09155273 76.48803711 C-108.09477539 77.50317383 -108.09799805 78.51831055 -108.10131836 79.56420898 C-108.10655518 80.49112549 -108.11179199 81.41804199 -108.1171875 82.37304688 C-108.05240699 85.34904347 -108.05240699 85.34904347 -107.52561951 88.54425049 C-107.03953734 92.02235193 -106.7446417 95.43740268 -106.53881836 98.94189453 C-106.46203857 100.22400314 -106.38525879 101.50611176 -106.30615234 102.82707214 C-106.2261385 104.21080427 -106.1461422 105.59453741 -106.06616211 106.97827148 C-105.9805993 108.41927302 -105.89473785 109.86025685 -105.80859375 111.30122375 C-105.58295606 115.0857854 -105.36052625 118.87052796 -105.13903809 122.65533447 C-104.78536541 128.69344234 -104.42771787 134.73131299 -104.06832886 140.76908302 C-103.94457978 142.8580781 -103.82276156 144.94717894 -103.70117188 147.03630066 C-103.54980504 149.59497399 -103.39013593 152.15317424 -103.22084045 154.71072388 C-103.07842131 157.05072857 -102.97297331 159.3933398 -102.90843201 161.73678589 C-102.74209986 167.91616565 -102.74209986 167.91616565 -99.71875 173.11010742 C-98.73124756 173.71757812 -97.74374512 174.32504883 -96.72631836 174.95092773 C-95.65575195 175.63413086 -94.58518555 176.31733398 -93.48217773 177.02124023 C-92.35489258 177.68381836 -91.22760742 178.34639648 -90.06616211 179.02905273 C-88.92912437 179.74158558 -87.79432817 180.45770862 -86.66186523 181.17749023 C-81.67623967 184.74428785 -81.67623967 184.74428785 -76.00366211 186.27905273 C-75.85391004 176.04599438 -76.16844905 165.8626599 -76.64794922 155.640625 C-76.9974807 147.84937504 -77.05587958 140.07758743 -77.00366211 132.27905273 C-76.20808919 133.9925944 -75.41251628 135.70613607 -74.61694336 137.41967773 C-74.09729004 138.53890625 -73.57763672 139.65813477 -73.04223633 140.8112793 C-71.87579462 143.32360241 -70.70946693 145.83597843 -69.54321289 148.34838867 C-66.57483036 154.74279686 -63.6053362 161.13668192 -60.63256836 167.52905273 C-60.09349854 168.69033691 -59.55442871 169.85162109 -58.99902344 171.0480957 C-57.91700607 173.37255007 -56.82958023 175.69449433 -55.73681641 178.01391602 C-53.10010595 183.63303105 -50.57478373 189.25749869 -48.26928711 195.02124023 C-43.20951721 207.42752349 -39.04188791 215.23561368 -26.8581543 221.30541992 C-23.78809943 222.91723914 -21.03366715 224.92043411 -18.19116211 226.90405273 C-14.87200006 229.44574842 -14.87200006 229.44574842 -11.00366211 230.27905273 C-11.00366211 193.31905273 -11.00366211 156.35905273 -11.00366211 118.27905273 C-18.59366211 113.98905273 -26.18366211 109.69905273 -34.00366211 105.27905273 C-35.98366211 103.95905273 -37.96366211 102.63905273 -40.00366211 101.27905273 C-40.66366211 101.27905273 -41.32366211 101.27905273 -42.00366211 101.27905273 C-42.00366211 120.74905273 -42.00366211 140.21905273 -42.00366211 160.27905273 C-56.60781658 129.15991984 -56.60781658 129.15991984 -62.20019531 117.12670898 C-63.27486792 114.81727505 -64.35411396 112.50996365 -65.43798828 110.20483398 C-67.95565701 104.82594894 -70.3747634 99.44344357 -72.57788086 93.92749023 C-77.48899065 81.82623327 -80.79379062 75.80858074 -93.00366211 70.27905273 C-95.44237624 68.84520951 -97.81404696 67.31231031 -100.19116211 65.77905273 C-103.8403315 63.1945149 -103.8403315 63.1945149 -108.00366211 62.27905273 Z " fill="#54727D" transform="translate(134.003662109375,7.720947265625)"/>
<path d="M0 0 C0.58531494 0.27900146 1.17062988 0.55800293 1.77368164 0.84545898 C2.77842529 1.3197937 2.77842529 1.3197937 3.8034668 1.80371094 C4.50648926 2.14619873 5.20951172 2.48868652 5.93383789 2.84155273 C6.6832666 3.20015381 7.43269531 3.55875488 8.20483398 3.92822266 C14.10866193 6.78034659 19.86238535 9.86679288 25.62597656 12.99169922 C30.4818007 15.57031245 35.4417582 17.91564869 40.41040039 20.26733398 C52.00745201 25.78894117 63.56389493 31.38832771 75.07446289 37.08813477 C77.22210778 38.14840218 79.37259552 39.20292725 81.52563477 40.25219727 C84.6944979 41.79732584 87.85396144 43.36030587 91.01196289 44.92749023 C91.97426819 45.39214691 92.93657349 45.85680359 93.92803955 46.33554077 C94.81457214 46.78015656 95.70110474 47.22477234 96.61450195 47.68286133 C97.39118225 48.06493744 98.16786255 48.44701355 98.96807861 48.84066772 C101.61538507 50.71806376 102.6823981 52.30869807 103.99633789 55.27905273 C104.18746948 58.44499207 104.18746948 58.44499207 103.92553711 62.06494141 C103.88195824 62.73047846 103.83837936 63.39601551 103.79347992 64.08172035 C103.64503298 66.28822607 103.47305696 68.4922394 103.30102539 70.69702148 C103.19146185 72.25849911 103.08338833 73.82008191 102.97671509 75.38175964 C102.68770401 79.55157427 102.3784045 83.71964077 102.0642395 87.88762665 C101.7434414 92.17641714 101.43791157 96.46629346 101.13110352 100.75610352 C100.76506822 105.86111627 100.39712637 110.9659598 100.02032471 116.07019043 C99.32460564 125.5152301 98.69292583 134.95983571 98.16040039 144.41577148 C97.99028113 147.29049148 97.81856847 150.16511139 97.64630127 153.03970337 C97.54704522 154.77005908 97.45525805 156.50086085 97.37127686 158.23202515 C97.25660808 160.56977655 97.11432063 162.90423226 96.96508789 165.23999023 C96.89741211 166.49602051 96.82973633 167.75205078 96.76000977 169.04614258 C95.52625944 174.26907154 91.80713184 176.97268589 87.44946289 179.79467773 C86.78390381 180.23126709 86.11834473 180.66785645 85.43261719 181.11767578 C84.35040894 181.81630737 84.35040894 181.81630737 83.24633789 182.52905273 C81.61142377 183.60205423 79.97735442 184.67634365 78.34399414 185.75170898 C77.03712646 186.61046631 77.03712646 186.61046631 75.70385742 187.48657227 C70.99955956 190.60099561 66.34389373 193.78647711 61.68383789 196.96655273 C51.57286262 203.8551645 41.44533312 210.71898452 31.3085022 217.56948853 C29.70988768 218.64985095 28.11139313 219.73039092 26.51303101 220.81112671 C25.36914413 221.58451889 25.36914413 221.58451889 24.20214844 222.37353516 C23.44977402 222.88237747 22.6973996 223.39121979 21.92222595 223.91548157 C20.43677259 224.91798372 18.94970415 225.91809731 17.46095276 226.91569519 C13.85908818 229.33046644 10.28557229 231.77298198 6.75512695 234.29125977 C6.08007111 234.76414932 5.40501526 235.23703888 4.70950317 235.72425842 C3.44541669 236.61070516 2.19043829 237.51034907 0.94699097 238.42552185 C-1.91183239 240.40906467 -3.62952365 241.28547634 -7.14624023 241.22509766 C-10.08127486 240.25335644 -12.02020933 239.1827688 -14.48022461 237.32592773 C-18.52757977 234.35796793 -22.61486299 231.4737999 -26.77709961 228.66967773 C-28.01178425 227.83432531 -29.24640172 226.99887362 -30.48095703 226.16333008 C-31.11552826 225.73445496 -31.75009949 225.30557983 -32.40390015 224.8637085 C-35.13466238 223.01810502 -37.86421188 221.17071121 -40.59385681 219.32345581 C-42.00205 218.37050544 -43.41030418 217.4176452 -44.81861877 216.46487427 C-49.30543372 213.42925126 -53.79038562 210.39090257 -58.27319336 207.34936523 C-59.14000984 206.76131104 -59.14000984 206.76131104 -60.02433777 206.16137695 C-62.88142218 204.22272629 -65.73757067 202.28271505 -68.59228516 200.34057617 C-74.02599995 196.64553138 -79.46725613 192.96303852 -84.9329071 189.31533813 C-87.55640954 187.56354582 -90.17600908 185.80596608 -92.7953186 184.0479126 C-94.05019008 183.20804578 -95.30698442 182.37104426 -96.56576538 181.53704834 C-98.30385045 180.38524375 -100.03518441 179.22391083 -101.76538086 178.06030273 C-102.75497803 177.40094727 -103.7445752 176.7415918 -104.76416016 176.06225586 C-107.42704224 173.94193637 -107.86457881 172.45895739 -108.25723553 169.12787819 C-108.31790612 168.28908812 -108.37857672 167.45029804 -108.44108582 166.58609009 C-108.51266403 165.62156418 -108.58424225 164.65703827 -108.6579895 163.6632843 C-108.73234222 162.60659042 -108.80669495 161.54989655 -108.88330078 160.46118164 C-109.00538155 158.7900808 -109.00538155 158.7900808 -109.12992859 157.08522034 C-109.39826865 153.39232347 -109.6604441 149.69902455 -109.92163086 146.00561523 C-110.10434534 143.44355197 -110.28706947 140.8814894 -110.46980286 138.31942749 C-110.80305307 133.63176123 -111.13405399 128.9439492 -111.46248168 124.25594294 C-111.9456945 117.35874875 -112.43910287 110.46238506 -112.94143504 103.56655753 C-113.37605348 97.59091962 -113.79780645 91.614444 -114.21489906 85.63755417 C-114.39405739 83.09593654 -114.57711708 80.55459085 -114.7641201 78.01353836 C-115.02449049 74.46160191 -115.27015743 70.90893826 -115.51220703 67.35571289 C-115.59263245 66.30306747 -115.67305786 65.25042206 -115.75592041 64.1658783 C-115.81903915 63.19571274 -115.8821579 62.22554718 -115.94718933 61.22598267 C-116.00672885 60.38643854 -116.06626837 59.54689442 -116.12761211 58.68190956 C-115.98110141 55.84169795 -115.24456172 53.82690362 -114.00366211 51.27905273 C-112.33398438 49.9362793 -112.33398438 49.9362793 -110.32006836 48.91967773 C-109.56693359 48.53086426 -108.81379883 48.14205078 -108.0378418 47.74145508 C-107.2221875 47.3413623 -106.4065332 46.94126953 -105.56616211 46.52905273 C-104.72085938 46.09931152 -103.87555664 45.66957031 -103.00463867 45.22680664 C-96.34538181 41.86759247 -89.60180785 38.68216 -82.84277344 35.52954102 C-78.06306299 33.29155938 -73.38443394 30.93465183 -68.75366211 28.40405273 C-61.81513586 24.62273949 -54.71541657 21.2261309 -47.56542969 17.86450195 C-41.67561018 15.080921 -35.85270223 12.1953309 -30.06616211 9.20483398 C-28.70503159 8.5061212 -27.34378501 7.80763446 -25.98242188 7.109375 C-23.97106703 6.07748564 -21.96323467 5.04069829 -19.96383667 3.98580933 C-18.09745092 3.00148038 -16.22184441 2.03720166 -14.34350586 1.07592773 C-12.72496704 0.23046387 -12.72496704 0.23046387 -11.07373047 -0.63208008 C-6.89169717 -2.11533006 -4.09228407 -1.47246434 0 0 Z M-13.08178711 4.62280273 C-14.06985352 5.12328125 -15.05791992 5.62375977 -16.07592773 6.1394043 C-17.12458008 6.68048828 -18.17323242 7.22157227 -19.25366211 7.77905273 C-21.43594938 8.88843638 -23.61824105 9.99781137 -25.80053711 11.10717773 C-27.39671875 11.92412109 -27.39671875 11.92412109 -29.02514648 12.75756836 C-32.83926004 14.70589259 -36.66932588 16.62093825 -40.50366211 18.52905273 C-44.24817937 20.39821436 -47.99067264 22.27112148 -51.72631836 24.15795898 C-59.60633003 28.13029307 -67.53652135 31.9842787 -75.50366211 35.77905273 C-87.83494103 41.65518048 -100.09401911 47.58135921 -112.00366211 54.27905273 C-110.96189313 75.31455677 -109.69795543 96.31970986 -108.11425781 117.3215332 C-107.98614896 119.02220943 -107.85813705 120.72289297 -107.73022461 122.42358398 C-107.63667946 123.6672171 -107.63667946 123.6672171 -107.54124451 124.93597412 C-106.82838048 134.49859209 -106.22600179 144.06814376 -105.65014648 153.63989258 C-105.45205203 156.85446593 -105.23489625 160.06671445 -105.00366211 163.27905273 C-104.95234131 164.10099121 -104.90102051 164.92292969 -104.84814453 165.76977539 C-104.59680314 168.69598846 -104.37085093 170.79480372 -102.57006836 173.16967773 C-98.06959152 176.22263279 -93.55188901 179.24892602 -89.02432251 182.26148987 C-79.03012238 188.91220903 -69.07220271 195.61540094 -59.12866211 202.34155273 C-57.52523454 203.42570975 -55.92180019 204.50985672 -54.31835938 205.59399414 C-50.31198492 208.30324655 -46.30630155 211.01351859 -42.30096436 213.7243042 C-40.08302404 215.22534285 -37.86488983 216.7260946 -35.64672852 218.22680664 C-32.34943753 220.45787213 -29.05297463 222.6901554 -25.75726318 224.92355347 C-24.55748153 225.73646552 -23.35749345 226.54907302 -22.1572876 227.36135864 C-20.51036402 228.47617368 -18.86441042 229.59242128 -17.21850586 230.70874023 C-16.30190186 231.32990723 -15.38529785 231.95107422 -14.44091797 232.59106445 C-12.00366211 234.27905273 -12.00366211 234.27905273 -9.99023438 236.06469727 C-8.06473132 237.48357246 -8.06473132 237.48357246 -5.70458984 237.25146484 C-2.03856363 235.93158937 1.01444527 233.90040091 4.21118164 231.72045898 C4.90337296 231.25727768 5.59556427 230.79409637 6.30873108 230.31687927 C8.52224108 228.8325935 10.72789467 227.33705425 12.93383789 225.84155273 C14.38194041 224.87015578 15.83050427 223.89944618 17.27954102 222.92944336 C23.96421456 218.44129906 30.59256101 213.888205 37.12524414 209.18139648 C46.31968891 202.56942089 55.63722182 196.19552652 65.41946411 190.47979736 C68.34082332 188.76354411 71.23008135 186.9970091 74.1171875 185.22387695 C75.58764255 184.33836063 77.07256644 183.47647028 78.5703125 182.63793945 C87.21417367 177.92802175 87.21417367 177.92802175 92.83639526 170.19384766 C94.00457531 165.19188797 94.03197483 160.17918718 93.99160767 155.06414795 C93.99804673 151.27291045 94.27050616 147.51697939 94.53723145 143.73651123 C94.74567018 140.74824869 94.92119582 137.75971869 95.08691406 134.76879883 C96.20072602 114.7162192 97.48091891 94.68650128 99.08203125 74.66674805 C99.14356384 73.88476044 99.20509644 73.10277283 99.26849365 72.29708862 C99.43236439 70.21972628 99.6002825 68.14268428 99.76855469 66.06567383 C99.9309677 63.3657534 100.02078179 60.74067701 100.01057434 58.04238892 C100.00587631 56.80048798 100.00117828 55.55858704 99.99633789 54.27905273 C86.51038331 47.48936781 73.01985973 40.70883088 59.52383804 33.93917847 C53.25759647 30.79574233 46.99288699 27.6493223 40.73168945 24.49584961 C34.6923514 21.45412769 28.64888378 18.42076564 22.60277557 15.39251709 C20.29364355 14.23424799 17.98592453 13.07315758 15.67963409 11.90924072 C12.4558591 10.28289267 9.22726273 8.66653496 5.99731445 7.05249023 C4.5601709 6.32313263 4.5601709 6.32313263 3.09399414 5.57904053 C2.21342346 5.14150452 1.33285278 4.70396851 0.42559814 4.25317383 C-0.33764645 3.86970795 -1.10089104 3.48624207 -1.88726425 3.09115601 C-6.29224669 1.40087805 -9.13661216 2.60340322 -13.08178711 4.62280273 Z " fill="#070707" transform="translate(134.003662109375,7.720947265625)"/>
<path d="M0 0 C2 1 2 1 3 3 C1.31970703 3.83144531 1.31970703 3.83144531 -0.39453125 4.6796875 C-1.86724038 5.41135191 -3.33989372 6.14312861 -4.8125 6.875 C-5.55048828 7.23980469 -6.28847656 7.60460938 -7.04882812 7.98046875 C-7.76103516 8.33496094 -8.47324219 8.68945312 -9.20703125 9.0546875 C-9.8616333 9.37937012 -10.51623535 9.70405273 -11.19067383 10.03857422 C-13.24652798 11.09255672 -13.24652798 11.09255672 -16 13 C-14.89527344 13.57105469 -13.79054687 14.14210938 -12.65234375 14.73046875 C-3.50349901 19.48850668 5.54150927 24.39194981 14.5 29.5 C21.44033314 33.45678895 28.40820442 37.32131965 35.5 41 C43.71713246 45.26347361 51.78086379 49.77382821 59.82226562 54.359375 C61.63387767 55.39236833 63.44829685 56.42045574 65.265625 57.44335938 C67.16500996 58.5246521 69.04961641 59.63215534 70.921875 60.75976562 C71.87578125 61.31857422 72.8296875 61.87738281 73.8125 62.453125 C74.66457031 62.96520508 75.51664063 63.47728516 76.39453125 64.00488281 C79.70539323 65.26941368 81.60930196 64.91279198 85 64 C87.34592696 62.68518977 89.53036988 61.37006121 91.75 59.875 C93.80763756 58.49863841 95.84660805 57.23135949 98 56 C98.66 56.33 99.32 56.66 100 57 C99.01 57.99 99.01 57.99 98 59 C98.66 59.66 99.32 60.32 100 61 C96.55930376 63.29379749 95.27709699 64 91 64 C91 64.66 91 65.32 91 66 C90.10023438 66.42667969 89.20046875 66.85335937 88.2734375 67.29296875 C77.93440367 72.28601896 68.07278207 77.95266873 58.2265625 83.8515625 C57.36192383 84.3662207 56.49728516 84.88087891 55.60644531 85.41113281 C53.82479713 86.49721059 52.06415862 87.61831767 50.32324219 88.76855469 C49.03015137 89.60628418 49.03015137 89.60628418 47.7109375 90.4609375 C46.9482959 90.97188965 46.1856543 91.4828418 45.39990234 92.00927734 C42.16254755 93.34571536 40.35020414 92.92324641 37 92 C34.36962891 90.74414062 34.36962891 90.74414062 31.7265625 89.15625 C30.74598877 88.57447998 29.76541504 87.99270996 28.75512695 87.39331055 C27.72218506 86.76851807 26.68924316 86.14372559 25.625 85.5 C23.44458413 84.20346177 21.26359485 82.90788737 19.08203125 81.61328125 C18.02838379 80.98502441 16.97473633 80.35676758 15.88916016 79.70947266 C12.39532357 77.64222204 8.86505671 75.65141512 5.3125 73.6875 C-6.13046098 67.31963388 -17.37780996 60.6028488 -28.66357422 53.96191406 C-31.50422215 52.29153159 -34.34690973 50.62475356 -37.19140625 48.9609375 C-45.52904054 44.08048207 -53.79841529 39.10637796 -62 34 C-60.68 33.01 -59.36 32.02 -58 31 C-58 31.66 -58 32.32 -58 33 C-57.23171875 33.20238281 -56.4634375 33.40476563 -55.671875 33.61328125 C-50.51042208 35.56255336 -45.97903407 38.36602701 -41.25 41.1875 C-39.08894367 42.46292098 -36.927471 43.73763673 -34.765625 45.01171875 C-33.64994141 45.67091309 -32.53425781 46.33010742 -31.38476562 47.00927734 C-25.94407909 50.20917333 -20.47175456 53.35362785 -15 56.5 C-6.46630877 61.41560017 2.05490063 66.35188174 10.5625 71.3125 C11.54976074 71.88556885 12.53702148 72.4586377 13.55419922 73.04907227 C18.09378882 75.6897411 22.60709607 78.35840463 27.06640625 81.1328125 C27.84234131 81.60936279 28.61827637 82.08591309 29.41772461 82.5769043 C30.83758607 83.45212694 32.2493863 84.34063817 33.65063477 85.24536133 C36.48353957 86.98099622 38.56177714 87.99000028 41.91015625 88.06640625 C46.2270185 86.57651574 49.93118474 84.382393 53.8125 82 C54.97555664 81.30390625 54.97555664 81.30390625 56.16210938 80.59375 C59.780782 78.56330682 59.780782 78.56330682 63 76 C61.84721558 75.36723145 61.84721558 75.36723145 60.67114258 74.72167969 C47.35945625 67.40972442 34.05980086 60.08638983 20.89575195 52.51074219 C13.80235274 48.43702021 6.65635743 44.46190365 -0.5 40.5 C-12.05848049 34.1006308 -23.55149998 27.59393333 -35 21 C-34.70117188 19.11401367 -34.70117188 19.11401367 -34 17 C-31.49864619 15.5823638 -29.1320068 14.43086503 -26.5 13.3125 C-24.95521821 12.62646388 -23.4123002 11.93621848 -21.87109375 11.2421875 C-21.07171387 10.8822168 -20.27233398 10.52224609 -19.44873047 10.15136719 C-14.63927064 7.89001001 -9.99725554 5.2981463 -5.359375 2.70629883 C-3.60320171 1.74657363 -1.80465254 0.8651279 0 0 Z " fill="#F6FAFA" transform="translate(87,29)"/>
<path d="M0 0 C3.32167331 0.52967597 5.9681556 1.92282836 8.90234375 3.51953125 C9.86374268 4.0407959 10.8251416 4.56206055 11.81567383 5.09912109 C12.84587646 5.66453613 13.8760791 6.22995117 14.9375 6.8125 C16.54951294 7.69156006 16.54951294 7.69156006 18.1940918 8.58837891 C25.7988948 12.7513264 33.34269859 17.01344016 40.85571289 21.33935547 C47.99029888 25.44239332 55.17558616 29.44946723 62.375 33.4375 C66.91712205 35.9575133 71.45863812 38.47861708 76 41 C77.13115234 41.62745117 78.26230469 42.25490234 79.42773438 42.90136719 C82.66342813 44.69928745 85.89477955 46.50476896 89.125 48.3125 C90.10903809 48.85769287 91.09307617 49.40288574 92.10693359 49.96459961 C93.45005615 50.71882202 93.45005615 50.71882202 94.8203125 51.48828125 C95.60680176 51.92696533 96.39329102 52.36564941 97.20361328 52.81762695 C99 54 99 54 100 56 C96.64094855 58.04827851 93.26059884 60.05845836 89.875 62.0625 C88.92367187 62.64322266 87.97234375 63.22394531 86.9921875 63.82226562 C86.0640625 64.36689453 85.1359375 64.91152344 84.1796875 65.47265625 C83.33132324 65.98062744 82.48295898 66.48859863 81.60888672 67.01196289 C78.26064131 68.28000979 76.42858664 67.94622269 73 67 C70.49658203 65.82348633 70.49658203 65.82348633 68.0078125 64.33203125 C67.06824707 63.77588135 66.12868164 63.21973145 65.16064453 62.64672852 C64.15888184 62.04143311 63.15711914 61.4361377 62.125 60.8125 C59.95846472 59.52582042 57.79179434 58.23936827 55.625 56.953125 C53.96984375 55.9640918 53.96984375 55.9640918 52.28125 54.95507812 C47.24903378 51.95671596 42.18736052 49.00958016 37.125 46.0625 C36.14450684 45.49007568 35.16401367 44.91765137 34.15380859 44.32788086 C27.80736122 40.62466953 21.44503858 36.94990898 15.07519531 33.28710938 C2.96776475 26.32489233 -9.05918911 19.24436503 -21 12 C-18.85946382 9.64900142 -16.9120312 8.30260953 -14.0234375 6.9921875 C-13.270625 6.64542969 -12.5178125 6.29867187 -11.7421875 5.94140625 C-10.57042969 5.41353516 -10.57042969 5.41353516 -9.375 4.875 C-7.81948754 4.16586932 -6.2647562 3.45502185 -4.7109375 2.7421875 C-4.02306152 2.4313623 -3.33518555 2.12053711 -2.62646484 1.80029297 C-1.00214073 1.10956684 -1.00214073 1.10956684 0 0 Z " fill="#313232" transform="translate(51,50)"/>
<path d="M0 0 C2.32983398 1.0246582 2.32983398 1.0246582 4.74609375 2.30078125 C5.65359375 2.77676758 6.56109375 3.25275391 7.49609375 3.74316406 C8.95208984 4.51998535 8.95208984 4.51998535 10.4375 5.3125 C11.46101563 5.85229492 12.48453125 6.39208984 13.5390625 6.94824219 C21.11970004 10.96001255 28.64182899 15.07543726 36.1550293 19.21166992 C44.9425069 24.02295542 53.85175589 28.58821008 62.76589966 33.15856934 C73.29816092 38.56197507 83.71784124 44.13254041 94 50 C94 50.66 94 51.32 94 52 C91.14235121 54.17094995 87.97274385 55.8819968 84.875 57.6875 C84.0190625 58.21150391 83.163125 58.73550781 82.28125 59.27539062 C75.96356443 62.97366656 75.96356443 62.97366656 71.85546875 63.0859375 C68.17804618 61.68741017 64.82465672 59.91621366 61.4375 57.9375 C59.83257164 57.02378973 58.2270606 56.1111025 56.62109375 55.19921875 C55.73276855 54.69181152 54.84444336 54.1844043 53.92919922 53.66162109 C48.31317808 50.47587014 42.65425898 47.3671773 37 44.25 C36.3832843 43.90949615 35.7665686 43.56899231 35.13116455 43.21817017 C26.22075614 38.29864397 17.2805916 33.43875017 8.3125 28.625 C-6.98135348 20.40783911 -6.98135348 20.40783911 -14.4375 16.3125 C-15.17121826 15.91434082 -15.90493652 15.51618164 -16.66088867 15.10595703 C-19.85578593 13.34056902 -22.50395291 11.65632207 -25 9 C-19.66666667 6.33333333 -14.33333333 3.66666667 -9 1 C-8.36288086 0.60925293 -7.72576172 0.21850586 -7.06933594 -0.18408203 C-4.29755971 -1.27696501 -2.82899059 -0.85404001 0 0 Z " fill="#2F3030" transform="translate(95,32)"/>
<path d="M0 0 C0.33 0 0.66 0 1 0 C0.6044983 11.29109116 0.09968759 22.55535057 -0.875 33.8125 C-1.62790499 42.53546282 -2.21389884 51.26003155 -2.7265625 60 C-2.82201859 61.62563118 -2.82201859 61.62563118 -2.91940308 63.28410339 C-3.30061718 69.81511078 -3.66986076 76.34671827 -4.03462219 82.87866211 C-4.21690284 85.95708581 -4.42932789 89.03238422 -4.64477539 92.10864258 C-4.90747371 95.95046281 -5.02140068 99.75007616 -5.00952148 103.6003418 C-5.20163384 116.67250723 -5.20163384 116.67250723 -9.85009766 121.3425293 C-13.62093388 124.46821675 -17.79908657 126.80814057 -22.0625 129.1875 C-23.58099268 130.10410734 -25.09512486 131.02797439 -26.60498047 131.95874023 C-29.63528984 133.81879389 -32.68134713 135.64665509 -35.74560547 137.45019531 C-41.55405637 140.89443162 -47.08167913 144.70751892 -52.625 148.5625 C-54.60154759 149.91338731 -56.57943848 151.26231104 -58.55859375 152.609375 C-59.57421387 153.30224609 -60.58983398 153.99511719 -61.63623047 154.70898438 C-67.61501342 158.78390656 -73.60700166 162.83941358 -79.59759521 166.89694214 C-81.63962324 168.28007157 -83.68139265 169.66358212 -85.72314453 171.04711914 C-86.98598239 171.90253635 -88.24883954 172.75792508 -89.51171875 173.61328125 C-90.36323265 174.19030792 -90.36323265 174.19030792 -91.23194885 174.7789917 C-92.82018976 175.85430165 -94.41006912 176.92719038 -96 178 C-97.0825708 178.75047607 -98.1651416 179.50095215 -99.28051758 180.27416992 C-102 182 -102 182 -104 182 C-104.23384063 166.60563027 -104.41005859 151.21139374 -104.51812172 135.81566525 C-104.56963732 128.66662588 -104.63983599 121.51869136 -104.75439453 114.37036133 C-104.85422473 108.13808033 -104.91861758 101.90659947 -104.94088495 95.67354113 C-104.95389905 92.37402951 -104.98963817 89.07733391 -105.05730057 85.77842522 C-105.12993414 82.09040672 -105.13989054 78.40712471 -105.13525391 74.71850586 C-105.17120667 73.63093491 -105.20715942 72.54336395 -105.24420166 71.4228363 C-105.18209878 66.85588573 -105.11517896 64.12065168 -101.80289841 60.79211617 C-99.27042112 59.00139823 -96.72856176 57.46971463 -94 56 C-93.01 55.34 -92.02 54.68 -91 54 C-88.3125 53.875 -88.3125 53.875 -86 54 C-86 53.34 -86 52.68 -86 52 C-82.26436721 49.28317615 -78.44380808 48.13273539 -74 47 C-74 46.34 -74 45.68 -74 45 C-73.35377686 44.62939453 -72.70755371 44.25878906 -72.04174805 43.87695312 C-59.33304715 36.58231283 -46.65912777 29.23657293 -34.0625 21.75 C-17.71340927 12.04140187 -17.71340927 12.04140187 -9.9375 7.5 C-9.15189697 7.0369043 -8.36629395 6.57380859 -7.55688477 6.09667969 C-2.23182665 3 -2.23182665 3 0 3 C0 2.01 0 1.02 0 0 Z M-50.0625 34.8125 C-50.90248535 35.27825439 -51.7424707 35.74400879 -52.60791016 36.22387695 C-60.80806253 40.81306934 -68.86272745 45.64463845 -76.89477539 50.52075195 C-84.52995269 55.15328212 -92.23709321 59.56405326 -100 64 C-100 100.96 -100 137.92 -100 176 C-95.52333531 174.21185654 -95.52333531 174.21185654 -91.55859375 171.84765625 C-90.90665039 171.41066406 -90.25470703 170.97367188 -89.58300781 170.5234375 C-88.52098145 169.80027344 -88.52098145 169.80027344 -87.4375 169.0625 C-86.29619629 168.29099609 -86.29619629 168.29099609 -85.13183594 167.50390625 C-83.40368479 166.33512144 -81.67671211 165.16459298 -79.95068359 163.99267578 C-77.26942324 162.18194874 -74.57843629 160.38724737 -71.88275146 158.59814453 C-40.60604795 137.82828468 -15.74230041 116.41527805 -7 78 C-5.80785904 70.89997062 -5.74661859 63.81382063 -5.6875 56.625 C-5.65849609 55.45710938 -5.62949219 54.28921875 -5.59960938 53.0859375 C-5.53079734 43.64280954 -6.96389974 36.02041508 -13.4375 28.875 C-17.87333679 25.38084923 -21.95672164 25.27270555 -27.4609375 25.36328125 C-35.60974075 26.82934629 -42.89921118 30.80078947 -50.0625 34.8125 Z " fill="#A09071" transform="translate(233,62)"/>
<path d="M0 0 C2.85361613 1.41805938 5.64147426 2.92488842 8.43017578 4.46655273 C10.48469487 5.57215428 12.54069619 6.67500568 14.59814453 7.77514648 C15.60280762 8.31381348 16.6074707 8.85248047 17.64257812 9.4074707 C21.45383594 11.4087565 25.32836286 13.2400417 29.24267578 15.02905273 C36.1139222 18.18929842 42.79905829 21.64056231 49.47583008 25.19140625 C56.3857631 28.86396124 63.36376288 32.38149063 70.37597656 35.85375977 C74.41994939 37.86035389 78.45556138 39.88370621 82.49267578 41.90405273 C84.03431127 42.67494842 85.57597506 43.44578751 87.11767578 44.21655273 C88.23142578 44.77342773 89.34517578 45.33030273 90.49267578 45.90405273 C87.29392992 49.42903885 83.70222604 51.84473852 79.61767578 54.21655273 C78.71855469 54.77439453 78.71855469 54.77439453 77.80126953 55.34350586 C73.48691978 57.85631043 71.26023093 58.10108714 66.49267578 56.90405273 C64.06010328 55.82424076 61.75386263 54.71134578 59.41064453 53.46655273 C58.73195816 53.11464874 58.05327179 52.76274475 57.35401917 52.400177 C55.12533773 51.24242983 52.90286276 50.07326079 50.68017578 48.90405273 C49.11648762 48.08924402 47.55235296 47.27529163 45.98779297 46.4621582 C42.7543051 44.78067526 39.52292701 43.09523478 36.29296875 41.40698242 C29.64924181 37.93799913 22.98081874 34.51727752 16.31369019 31.09356689 C12.2625751 29.01126879 8.21570236 26.92074405 4.16838074 24.83108521 C1.07237134 23.23309578 -2.02481273 21.63750316 -5.12548828 20.04858398 C-8.38027067 18.38022028 -11.63163275 16.70536931 -14.88232422 15.02905273 C-16.30013184 14.30613037 -16.30013184 14.30613037 -17.74658203 13.56860352 C-18.60348633 13.12500488 -19.46039063 12.68140625 -20.34326172 12.22436523 C-21.08108887 11.84554199 -21.81891602 11.46671875 -22.57910156 11.07641602 C-24.54040284 9.88394087 -25.96285782 8.59207726 -27.50732422 6.90405273 C-24.85318421 5.35680975 -22.18762175 3.84225177 -19.50732422 2.34155273 C-18.76353516 1.90391602 -18.01974609 1.4662793 -17.25341797 1.01538086 C-11.02302997 -2.42487686 -6.54980423 -2.86290859 0 0 Z " fill="#2C2C2C" transform="translate(135.50732421875,15.095947265625)"/>
<path d="M0 0 C4.19158818 3.86915832 4.90815432 7.28142602 5.203125 12.80078125 C5.47292258 28.11094032 4.50157288 44.45277912 -6.19140625 56.4609375 C-21.64846416 71 -21.64846416 71 -27 71 C-27.01271723 68.58333504 -27.02441821 66.16667417 -27.03515625 63.75 C-27.03861557 62.99309875 -27.04207489 62.23619751 -27.04563904 61.45635986 C-27.06143938 57.27110863 -27.0615803 53.08657689 -27.03515625 48.90136719 C-27.02472697 47.19986987 -27.01431029 45.49837247 -27.00390625 43.796875 C-26.99835724 42.95284119 -26.99280823 42.10880737 -26.98709106 41.23919678 C-26.96741277 36.31842596 -27.08831534 31.4316762 -27.33984375 26.515625 C-27.84931947 12.14776215 -27.84931947 12.14776215 -24.41455078 8.15869141 C-20.03937584 4.6626657 -15.27224309 2.76116552 -10 1 C-6.79013152 -0.60493424 -3.47219686 -0.61880736 0 0 Z " fill="#94866B" transform="translate(192,123)"/>
<path d="M0 0 C-3.5198833 2.95026386 -7.08640179 5.32191316 -11.0859375 7.57421875 C-11.94760277 8.06240585 -11.94760277 8.06240585 -12.82667542 8.56045532 C-14.04656427 9.25118433 -15.26752158 9.94002934 -16.48947144 10.62710571 C-19.65312602 12.40629979 -22.80873326 14.19965559 -25.96484375 15.9921875 C-26.58063797 16.34152847 -27.19643219 16.69086945 -27.83088684 17.05079651 C-35.56852037 21.44741746 -43.21823376 25.99528731 -50.75390625 30.73046875 C-53 32 -53 32 -55 32 C-55 68.96 -55 105.92 -55 144 C-42.59551204 136.33439719 -42.59551204 136.33439719 -30.625 128.125 C-23.94458226 123.32524034 -17.155613 118.72498825 -10.23876953 114.27197266 C-5.10244522 110.9121036 -0.52434585 107.14434032 4 103 C4.66 103.33 5.32 103.66 6 104 C4.515 105.485 4.515 105.485 3 107 C3.33 107.66 3.66 108.32 4 109 C3.43531006 109.37471436 2.87062012 109.74942871 2.28881836 110.13549805 C-12.08111843 119.67773202 -26.39117901 129.30464186 -40.66430664 138.9909668 C-41.30697983 139.42706772 -41.94965302 139.86316864 -42.61180115 140.31248474 C-43.81036969 141.12597039 -45.0087592 141.9397199 -46.20692444 142.75379944 C-47.80337527 143.83769642 -49.40165848 144.91889301 -51 146 C-52.0832959 146.75120117 -53.1665918 147.50240234 -54.28271484 148.27636719 C-57 150 -57 150 -59 150 C-59.23384063 134.60563027 -59.41005859 119.21139374 -59.51812172 103.81566525 C-59.56963732 96.66662588 -59.63983599 89.51869136 -59.75439453 82.37036133 C-59.85422473 76.13808033 -59.91861758 69.90659947 -59.94088495 63.67354113 C-59.95389905 60.37402951 -59.98963817 57.07733391 -60.05730057 53.77842522 C-60.12993414 50.09040672 -60.13989054 46.40712471 -60.13525391 42.71850586 C-60.17120667 41.63093491 -60.20715942 40.54336395 -60.24420166 39.4228363 C-60.18209878 34.85588573 -60.11517896 32.12065168 -56.80289841 28.79211617 C-54.27042112 27.00139823 -51.72856176 25.46971463 -49 24 C-48.01 23.34 -47.02 22.68 -46 22 C-43.3125 21.875 -43.3125 21.875 -41 22 C-41 21.34 -41 20.68 -41 20 C-37.26436721 17.28317615 -33.44380808 16.13273539 -29 15 C-29 14.34 -29 13.68 -29 13 C-25.2854388 10.32734354 -21.26173567 8.11943434 -17.3125 5.8125 C-15.65831055 4.81186523 -15.65831055 4.81186523 -13.97070312 3.79101562 C-12.90400391 3.16517578 -11.83730469 2.53933594 -10.73828125 1.89453125 C-9.75899658 1.31550049 -8.77971191 0.73646973 -7.77075195 0.13989258 C-4.63310258 -1.15094229 -3.18534994 -1.01287664 0 0 Z " fill="#8C806A" transform="translate(188,94)"/>
<path d="M0 0 C0.66 0.33 1.32 0.66 2 1 C-1.98942515 5.53668227 -6.08255545 7.80401616 -11.5625 10.25 C-12.31724609 10.600625 -13.07199219 10.95125 -13.84960938 11.3125 C-19.37926001 13.84590822 -19.37926001 13.84590822 -22.18334961 14.54199219 C-24.0077568 14.83682769 -24.0077568 14.83682769 -25 16 C-24.30261719 16.391875 -23.60523438 16.78375 -22.88671875 17.1875 C-15.09880317 21.59970126 -7.38644611 26.13045631 0.3067627 30.70584106 C10.68129878 36.87570744 21.09884175 42.9583999 31.59375 48.921875 C37.93262972 52.52437646 44.24774914 56.16794044 50.5625 59.8125 C51.62090088 60.42295166 52.67930176 61.03340332 53.76977539 61.66235352 C54.79578857 62.25459717 55.82180176 62.84684082 56.87890625 63.45703125 C57.88711426 64.03404785 58.89532227 64.61106445 59.93408203 65.20556641 C62.0558096 66.4473802 64.15476052 67.72863419 66.23388672 69.04052734 C67.27947754 69.69102051 68.32506836 70.34151367 69.40234375 71.01171875 C70.33425537 71.60815186 71.26616699 72.20458496 72.22631836 72.8190918 C75.69406038 74.29549952 77.40841553 74.03085152 81 73 C83.4005309 71.92017089 83.4005309 71.92017089 85.66015625 70.48046875 C86.52664795 69.95799561 87.39313965 69.43552246 88.28588867 68.8972168 C89.20217041 68.33301025 90.11845215 67.76880371 91.0625 67.1875 C93.0175055 66.00921513 94.97325517 64.83216424 96.9296875 63.65625 C97.92838867 63.05296875 98.92708984 62.4496875 99.95605469 61.828125 C104.83715275 58.89664744 109.7553183 56.0319766 114.6875 53.1875 C115.57767822 52.66631592 116.46785645 52.14513184 117.38500977 51.6081543 C118.21057373 51.13289307 119.0361377 50.65763184 119.88671875 50.16796875 C120.61076904 49.74797607 121.33481934 49.3279834 122.08081055 48.89526367 C124 48 124 48 127 48 C127 47.34 127 46.68 127 46 C127.63808594 45.81824219 128.27617187 45.63648438 128.93359375 45.44921875 C129.75988281 45.19785156 130.58617187 44.94648437 131.4375 44.6875 C132.67306641 44.32205078 132.67306641 44.32205078 133.93359375 43.94921875 C134.61550781 43.63597656 135.29742187 43.32273438 136 43 C136.33 42.01 136.66 41.02 137 40 C138.9777832 38.55786133 138.9777832 38.55786133 141.55078125 37.08203125 C142.47697266 36.55029297 143.40316406 36.01855469 144.35742188 35.47070312 C145.33259766 34.92349609 146.30777344 34.37628906 147.3125 33.8125 C148.27607422 33.25369141 149.23964844 32.69488281 150.23242188 32.11914062 C157.48995536 28 157.48995536 28 162 28 C162 27.34 162 26.68 162 26 C164.31 25.34 166.62 24.68 169 24 C169 23.34 169 22.68 169 22 C169.99 22 170.98 22 172 22 C172 21.34 172 20.68 172 20 C173.7578125 19.0234375 175.515625 18.046875 177.2734375 17.0703125 C179.1612614 15.99102726 179.1612614 15.99102726 181 14 C181.33 15.32 181.66 16.64 182 18 C181.38181396 18.34667725 180.76362793 18.69335449 180.12670898 19.05053711 C164.96647644 27.54652346 164.96647644 27.54652346 150.01123047 36.39526367 C142.48046437 40.95802195 134.82438157 45.30874298 127.18432617 49.68505859 C122.51597677 52.36523871 117.87294571 55.0488353 113.33984375 57.953125 C110 60 110 60 108 60 C108 60.66 108 61.32 108 62 C106.37750059 62.83819158 104.75191503 63.6704116 103.125 64.5 C102.22007812 64.9640625 101.31515625 65.428125 100.3828125 65.90625 C98 67 98 67 96 67 C96 67.66 96 68.32 96 69 C95.1234375 69.25394531 94.246875 69.50789063 93.34375 69.76953125 C88.94952718 71.38656418 85.56614912 73.9231201 81.78125 76.63671875 C78.23741032 78.37379747 76.79774408 77.93289079 73 77 C70.01831055 75.57641602 70.01831055 75.57641602 66.88671875 73.75390625 C66.32024628 73.42757202 65.7537738 73.10123779 65.1701355 72.76501465 C63.33735113 71.70626314 61.51247249 70.63465084 59.6875 69.5625 C58.40986595 68.82077113 57.13178622 68.07980942 55.85327148 67.33959961 C52.22884075 65.23768798 48.61379234 63.12014804 45 61 C43.46621669 60.10404536 41.93237602 59.20818888 40.3984375 58.3125 C37.80184938 56.79208037 35.21017295 55.26363677 32.62109375 53.73046875 C27.09168524 50.45755142 21.5432599 47.21709168 15.99786377 43.97137451 C1.30028358 35.36741059 -13.35795086 26.69808919 -28 18 C-27.74829102 16.15234375 -27.74829102 16.15234375 -27 14 C-25.26928711 12.69140625 -25.26928711 12.69140625 -23.02734375 11.5625 C-22.20943359 11.14226563 -21.39152344 10.72203125 -20.54882812 10.2890625 C-19.68708984 9.86367188 -18.82535156 9.43828125 -17.9375 9 C-16.68549805 8.36191406 -16.68549805 8.36191406 -15.40820312 7.7109375 C-13.74895515 6.86773432 -12.08539512 6.03295872 -10.41748047 5.20703125 C-8.82343463 4.41113521 -7.23866954 3.59633409 -5.66455078 2.76171875 C-3.80549144 1.78366448 -1.90567662 0.88379206 0 0 Z " fill="#A3A7A3" transform="translate(51,47)"/>
<path d="M0 0 C0.33 0 0.66 0 1 0 C1.495 5.94 1.495 5.94 2 12 C2.33 12 2.66 12 3 12 C2.44292494 22.6870452 1.80738474 33.36916998 1.13104248 44.04928589 C1.04429558 45.42335765 0.9583866 46.79748259 0.87335205 48.17166138 C0.75137644 50.13803351 0.62573189 52.10417697 0.5 54.0703125 C0.4278125 55.21258301 0.355625 56.35485352 0.28125 57.53173828 C0.14203125 59.24852783 0.14203125 59.24852783 0 61 C-0.00019638 61.99618599 -0.00019638 61.99618599 -0.00039673 63.01249695 C-0.11893873 66.07150778 -0.29360322 68.18823388 -2.34783936 70.54888916 C-4.23317094 72.05371685 -6.16670817 73.34828298 -8.2109375 74.62890625 C-8.93487701 75.10827133 -9.65881653 75.58763641 -10.4046936 76.08152771 C-11.93186364 77.08568657 -13.46714026 78.07761119 -15.00976562 79.05786133 C-17.37717912 80.56388624 -19.71669489 82.10698775 -22.0546875 83.65820312 C-23.54279652 84.62986585 -25.03233372 85.59934554 -26.5234375 86.56640625 C-27.22665131 87.02769424 -27.92986511 87.48898224 -28.65438843 87.96424866 C-30.3873819 89.05776246 -32.18974122 90.03979067 -34 91 C-34.99 90.67 -35.98 90.34 -37 90 C-36.31035156 89.27296875 -35.62070313 88.5459375 -34.91015625 87.796875 C-13.66354996 65.17718871 -1.75001257 41.19906936 -0.4375 10 C-0.37272461 8.55173828 -0.37272461 8.55173828 -0.30664062 7.07421875 C-0.20158287 4.71625575 -0.09943086 2.35820584 0 0 Z " fill="#97896D" transform="translate(227,111)"/>
<path d="M0 0 C0.33 0.66 0.66 1.32 1 2 C2.18335938 2.36544922 2.18335938 2.36544922 3.390625 2.73828125 C8.57751977 4.55144901 13.04313157 7.37925165 17.75 10.1875 C19.91105633 11.46292098 22.072529 12.73763673 24.234375 14.01171875 C25.35005859 14.67091309 26.46574219 15.33010742 27.61523438 16.00927734 C33.05592091 19.20917333 38.52824544 22.35362785 44 25.5 C52.53369123 30.41560017 61.05490063 35.35188174 69.5625 40.3125 C70.54976074 40.88556885 71.53702148 41.4586377 72.55419922 42.04907227 C77.09378882 44.6897411 81.60709607 47.35840463 86.06640625 50.1328125 C86.84234131 50.60936279 87.61827637 51.08591309 88.41772461 51.5769043 C89.83758607 52.45212694 91.2493863 53.34063817 92.65063477 54.24536133 C95.48305024 55.98069642 97.56701889 56.98897233 100.9140625 57.07421875 C105.23234549 55.57101898 108.89234071 53.30340645 112.75 50.875 C114.26112961 49.92768681 115.77655774 48.98718438 117.296875 48.0546875 C117.96041992 47.63687012 118.62396484 47.21905273 119.30761719 46.78857422 C120.14534668 46.39822998 120.14534668 46.39822998 121 46 C121.66 46.33 122.32 46.66 123 47 C121.52929812 51.47213429 118.10464034 52.97737606 114.1875 55.0625 C112.95160942 55.7404964 111.71592866 56.41887541 110.48046875 57.09765625 C108.75763672 58.03931641 108.75763672 58.03931641 107 59 C105.72576172 59.89525391 105.72576172 59.89525391 104.42578125 60.80859375 C101.1649355 62.41013635 99.50305808 61.8291405 96 61 C93.36962891 59.74414062 93.36962891 59.74414062 90.7265625 58.15625 C89.74598877 57.57447998 88.76541504 56.99270996 87.75512695 56.39331055 C86.72218506 55.76851807 85.68924316 55.14372559 84.625 54.5 C82.44458413 53.20346177 80.26359485 51.90788737 78.08203125 50.61328125 C76.50156006 49.670896 76.50156006 49.670896 74.88916016 48.70947266 C71.39532357 46.64222204 67.86505671 44.65141512 64.3125 42.6875 C52.86953902 36.31963388 41.62219004 29.6028488 30.33642578 22.96191406 C27.49577785 21.29153159 24.65309027 19.62475356 21.80859375 17.9609375 C13.47095946 13.08048207 5.20158471 8.10637796 -3 3 C-2.01 2.01 -1.02 1.02 0 0 Z " fill="#E8F2F3" transform="translate(28,60)"/>
<path d="M0 0 C0.91771179 0.45856384 1.83542358 0.91712769 2.78094482 1.3895874 C5.80394557 2.90247764 8.82112509 4.42661277 11.83837891 5.95092773 C13.9369567 7.00394797 16.03588959 8.05626082 18.13516235 9.1078949 C23.65259591 11.87423857 29.16515639 14.65015932 34.67675781 17.42810059 C40.30454336 20.26247204 45.93688358 23.08776156 51.56884766 25.91381836 C62.61368943 31.45767252 73.65340452 37.01165472 84.68994141 42.57202148 C84.68994141 43.56202148 84.68994141 44.55202148 84.68994141 45.57202148 C79.21823577 43.95800134 74.31911343 41.51872309 69.25244141 38.94702148 C68.36210205 38.4989917 67.4717627 38.05096191 66.55444336 37.58935547 C60.85943753 34.71088196 55.23260198 31.72893485 49.62573242 28.68286133 C42.92830667 25.08981793 36.04181783 21.89339585 29.17260742 18.64526367 C23.64354171 16.01963029 18.18873304 13.31441252 12.81494141 10.38452148 C7.48022525 7.50830987 2.1251603 4.6918602 -3.31005859 2.00952148 C-4.00470215 1.65027588 -4.6993457 1.29103027 -5.41503906 0.92089844 C-10.0954032 -1.34461502 -13.12504101 -1.86200624 -18.31005859 -0.42797852 C-21.76815311 1.3070516 -25.01287508 3.26879057 -28.32177734 5.27124023 C-29.30791016 5.70049805 -30.29404297 6.12975586 -31.31005859 6.57202148 C-33.49682617 5.65332031 -33.49682617 5.65332031 -35.31005859 4.57202148 C-32.11518764 2.858083 -28.90240201 1.18083966 -25.68505859 -0.49047852 C-24.32960938 -1.21847656 -24.32960938 -1.21847656 -22.94677734 -1.96118164 C-22.06376953 -2.41557617 -21.18076172 -2.8699707 -20.27099609 -3.33813477 C-19.46452637 -3.76231689 -18.65805664 -4.18649902 -17.82714844 -4.62353516 C-11.42988999 -6.6680518 -5.5815396 -2.83757929 0 0 Z " fill="#DDDDDD" transform="translate(141.31005859375,15.427978515625)"/>
<path d="M0 0 C0.33 0 0.66 0 1 0 C1 36.63 1 73.26 1 111 C13.40448796 103.33439719 13.40448796 103.33439719 25.375 95.125 C32.05541774 90.32524034 38.844387 85.72498825 45.76123047 81.27197266 C50.89755478 77.9121036 55.47565415 74.14434032 60 70 C60.99 70.495 60.99 70.495 62 71 C61.01 71.99 60.02 72.98 59 74 C59.33 74.66 59.66 75.32 60 76 C59.43531006 76.37471436 58.87062012 76.74942871 58.28881836 77.13549805 C55.50406296 78.98469112 52.72060431 80.83582284 49.9375 82.6875 C48.88796143 83.38560791 47.83842285 84.08371582 46.75708008 84.80297852 C40.35172488 89.0698557 33.97042663 93.37046124 27.609375 97.703125 C26.90853287 98.18002274 26.20769073 98.65692047 25.48561096 99.14826965 C22.01139475 101.51268038 18.53981164 103.88081322 15.07202148 106.25463867 C13.79160514 107.12693897 12.51109221 107.99909753 11.23046875 108.87109375 C10.35071381 109.47627838 10.35071381 109.47627838 9.45318604 110.09368896 C6.9697246 111.78014666 4.86687788 113.04437404 2 114 C1.34 113.67 0.68 113.34 0 113 C0 75.71 0 38.42 0 0 Z " fill="#716652" transform="translate(132,127)"/>
<path d="M0 0 C0.66 0 1.32 0 2 0 C2.33 39.27 2.66 78.54 3 119 C1.35 118.67 -0.3 118.34 -2 118 C-1.01 117.505 -1.01 117.505 0 117 C0 78.39 0 39.78 0 0 Z " fill="#595B57" transform="translate(127,126)"/>
<path d="M0 0 C0.33 0 0.66 0 1 0 C1 37.29 1 74.58 1 113 C-0.485 113.495 -0.485 113.495 -2 114 C-4.19336453 112.83977912 -6.15425781 111.65052548 -8.19921875 110.265625 C-8.79426712 109.87179626 -9.38931549 109.47796753 -10.00239563 109.07220459 C-11.25899684 108.23651274 -12.51211306 107.39556049 -13.76196289 106.54980469 C-15.6809221 105.25444031 -17.6136286 103.98187357 -19.54882812 102.7109375 C-20.76651522 101.89716383 -21.98334272 101.08210214 -23.19921875 100.265625 C-24.07099007 99.69355316 -24.07099007 99.69355316 -24.96037292 99.10992432 C-26.5690918 98.00878906 -26.5690918 98.00878906 -29 96 C-29 95.01 -29 94.02 -29 93 C-25.35799783 94.32275131 -22.42338494 95.93346578 -19.27734375 98.1875 C-18.40916016 98.80367188 -17.54097656 99.41984375 -16.64648438 100.0546875 C-15.30553711 101.01761719 -15.30553711 101.01761719 -13.9375 102 C-12.15669577 103.27328142 -10.37420612 104.54420972 -8.58984375 105.8125 C-7.80472412 106.37582031 -7.01960449 106.93914062 -6.21069336 107.51953125 C-3.77731382 109.21643078 -3.77731382 109.21643078 0 111 C0 74.37 0 37.74 0 0 Z " fill="#3A4D54" transform="translate(123,127)"/>
<path d="M0 0 C0.66 0.33 1.32 0.66 2 1 C-1.98942515 5.53668227 -6.08255545 7.80401616 -11.5625 10.25 C-12.31724609 10.600625 -13.07199219 10.95125 -13.84960938 11.3125 C-19.37926001 13.84590822 -19.37926001 13.84590822 -22.18334961 14.54199219 C-24.0077568 14.83682769 -24.0077568 14.83682769 -25 16 C-23.90171875 16.62261719 -23.90171875 16.62261719 -22.78125 17.2578125 C-10.79870404 24.07645175 1.09832011 31.04146298 13 38 C8.92767966 39.35744011 6.63897532 37.81752662 3 36 C0.74721204 34.79286509 -1.4869763 33.55049465 -3.703125 32.27734375 C-4.3075946 31.93119522 -4.91206421 31.58504669 -5.53485107 31.22840881 C-6.79963981 30.50324268 -8.06340502 29.77628865 -9.32617188 29.04760742 C-11.25693503 27.93349828 -13.19066176 26.82468519 -15.125 25.71679688 C-24.48028842 20.34647438 -24.48028842 20.34647438 -28 18 C-27.74829102 16.15234375 -27.74829102 16.15234375 -27 14 C-25.26928711 12.69140625 -25.26928711 12.69140625 -23.02734375 11.5625 C-22.20943359 11.14226563 -21.39152344 10.72203125 -20.54882812 10.2890625 C-19.68708984 9.86367188 -18.82535156 9.43828125 -17.9375 9 C-16.68549805 8.36191406 -16.68549805 8.36191406 -15.40820312 7.7109375 C-13.74895515 6.86773432 -12.08539512 6.03295872 -10.41748047 5.20703125 C-8.82343463 4.41113521 -7.23866954 3.59633409 -5.66455078 2.76171875 C-3.80549144 1.78366448 -1.90567662 0.88379206 0 0 Z " fill="#AAD2E1" transform="translate(51,47)"/>
<path d="M0 0 C0.99 0.495 0.99 0.495 2 1 C2 1.99 2 2.98 2 4 C1.38181396 4.34667725 0.76362793 4.69335449 0.12670898 5.05053711 C-15.0313185 13.54731182 -15.0313185 13.54731182 -29.98657227 22.39306641 C-36.43410706 26.2970783 -42.96888288 30.05073759 -49.5 33.8125 C-51.1847644 34.78292236 -51.1847644 34.78292236 -52.90356445 35.77294922 C-55.01465792 36.98766381 -57.12674299 38.20065731 -59.23999023 39.41162109 C-60.90360578 40.3690278 -62.56328501 41.33338923 -64.21508789 42.31103516 C-67.851704 44.45473475 -70.76668299 45.58699346 -75 46 C-71.7893927 42.56403276 -68.07331459 40.58471374 -64 38.3125 C-63.27554688 37.89677734 -62.55109375 37.48105469 -61.8046875 37.05273438 C-61.10601562 36.66021484 -60.40734375 36.26769531 -59.6875 35.86328125 C-59.05199219 35.50532471 -58.41648438 35.14736816 -57.76171875 34.77856445 C-56 34 -56 34 -53 34 C-53 33.34 -53 32.68 -53 32 C-52.36191406 31.81824219 -51.72382813 31.63648437 -51.06640625 31.44921875 C-50.24011719 31.19785156 -49.41382813 30.94648437 -48.5625 30.6875 C-47.73878906 30.44386719 -46.91507813 30.20023438 -46.06640625 29.94921875 C-45.38449219 29.63597656 -44.70257813 29.32273437 -44 29 C-43.67 28.01 -43.34 27.02 -43 26 C-41.0222168 24.55786133 -41.0222168 24.55786133 -38.44921875 23.08203125 C-37.52302734 22.55029297 -36.59683594 22.01855469 -35.64257812 21.47070312 C-34.66740234 20.92349609 -33.69222656 20.37628906 -32.6875 19.8125 C-31.72392578 19.25369141 -30.76035156 18.69488281 -29.76757812 18.11914062 C-22.51004464 14 -22.51004464 14 -18 14 C-18 13.34 -18 12.68 -18 12 C-15.69 11.34 -13.38 10.68 -11 10 C-11 9.34 -11 8.68 -11 8 C-10.01 8 -9.02 8 -8 8 C-8 7.34 -8 6.68 -8 6 C-6.20963542 5.0234375 -4.41927083 4.046875 -2.62890625 3.0703125 C-0.83381685 2.08589976 -0.83381685 2.08589976 0 0 Z " fill="#E2DAC5" transform="translate(231,61)"/>
<path d="M0 0 C0.33 0 0.66 0 1 0 C1.02505615 0.69037354 1.0501123 1.38074707 1.07592773 2.09204102 C1.1926566 5.24901409 1.31503178 8.40574457 1.4375 11.5625 C1.47681641 12.64853516 1.51613281 13.73457031 1.55664062 14.85351562 C1.77238616 20.31353731 2.21690881 25.58955181 3 31 C3.1380955 33.89720854 3.14239888 36.78747948 3.125 39.6875 C3.12306641 40.47044434 3.12113281 41.25338867 3.11914062 42.06005859 C3.07229722 48.4060382 2.69285543 54.69006658 2 61 C1.67 61 1.34 61 1 61 C0.70995788 56.80518873 0.42539808 52.61004875 0.14550781 48.41455078 C0.0499403 46.99290393 -0.04702109 45.57134995 -0.14550781 44.14990234 C-0.97618783 32.13894743 -1.25666753 20.27487862 -0.5 8.25 C-0.45230469 7.445625 -0.40460937 6.64125 -0.35546875 5.8125 C-0.24013005 3.87480988 -0.12054766 1.93737304 0 0 Z " fill="#47636E" transform="translate(25,69)"/>
<path d="M0 0 C6.93324371 1.33021536 12.21316895 4.09491891 18.25 7.6875 C19.16934326 8.22407227 20.08868652 8.76064453 21.03588867 9.31347656 C23.6954796 10.86750011 26.34783368 12.43335225 29 14 C30.34418909 14.78403353 31.68913301 15.56677578 33.03515625 16.34765625 C35.69443115 17.89124013 38.34945218 19.44149983 41 21 C36.91422907 22.36192364 34.65389281 20.82515264 31 19 C28.09316221 17.49241642 25.22998292 15.915853 22.375 14.3125 C21.59463379 13.87623291 20.81426758 13.43996582 20.01025391 12.99047852 C6.41800438 5.34292523 6.41800438 5.34292523 0 1 C0 0.67 0 0.34 0 0 Z " fill="#9DB9C3" transform="translate(59,85)"/>
<path d="M0 0 C3.60793689 1.31625839 6.55340494 2.90454229 9.6875 5.1171875 C10.98300781 6.02791016 10.98300781 6.02791016 12.3046875 6.95703125 C13.19414063 7.58996094 14.08359375 8.22289062 15 8.875 C15.88945313 9.50019531 16.77890625 10.12539062 17.6953125 10.76953125 C21.89472234 13.73418924 26.04032173 16.71676677 30 20 C29.01 20.33 28.02 20.66 27 21 C24.80663547 19.83977912 22.84574219 18.65052548 20.80078125 17.265625 C20.20573288 16.87179626 19.61068451 16.47796753 18.99760437 16.07220459 C17.74100316 15.23651274 16.48788694 14.39556049 15.23803711 13.54980469 C13.3190779 12.25444031 11.3863714 10.98187357 9.45117188 9.7109375 C8.23348478 8.89716383 7.01665728 8.08210214 5.80078125 7.265625 C5.21960037 6.88424377 4.63841949 6.50286255 4.03962708 6.10992432 C2.4309082 5.00878906 2.4309082 5.00878906 0 3 C0 2.01 0 1.02 0 0 Z " fill="#445E67" transform="translate(94,220)"/>
<path d="M0 0 C1.65 0.66 3.3 1.32 5 2 C3.74874616 5.75376152 2.4347596 6.24073289 -1 8 C-1.66 8 -2.32 8 -3 8 C-3 8.66 -3 9.32 -3 10 C-3.99 10 -4.98 10 -6 10 C-6 10.66 -6 11.32 -6 12 C-8.64738916 13.4606285 -9.89448334 14 -13 14 C-13 14.66 -13 15.32 -13 16 C-13.66 15.67 -14.32 15.34 -15 15 C-15 13.68 -15 12.36 -15 11 C-14.00097656 10.45730469 -13.00195312 9.91460937 -11.97265625 9.35546875 C-10.66900073 8.63329987 -9.36562995 7.91061681 -8.0625 7.1875 C-7.40314453 6.83107422 -6.74378906 6.47464844 -6.06445312 6.10742188 C-2.00958993 3.97324509 -2.00958993 3.97324509 0 0 Z " fill="#EEEDE8" transform="translate(226,59)"/>
<path d="M0 0 C0.66 0.33 1.32 0.66 2 1 C-1.98942515 5.53668227 -6.08255545 7.80401616 -11.5625 10.25 C-12.31724609 10.600625 -13.07199219 10.95125 -13.84960938 11.3125 C-17.22312551 12.85807567 -20.38318515 14.14684463 -24 15 C-24.99 15.33 -25.98 15.66 -27 16 C-26 13 -26 13 -24.03808594 11.7890625 C-23.19536133 11.40492187 -22.35263672 11.02078125 -21.484375 10.625 C-20.56269531 10.19703125 -19.64101563 9.7690625 -18.69140625 9.328125 C-17.72074219 8.88984375 -16.75007813 8.4515625 -15.75 8 C-13.8479233 7.12725225 -11.94684835 6.25231732 -10.046875 5.375 C-9.19963867 4.99085937 -8.35240234 4.60671875 -7.47949219 4.2109375 C-4.91058142 3.01359134 -4.91058142 3.01359134 -2.30957031 1.2890625 C-1.54741211 0.86367188 -0.78525391 0.43828125 0 0 Z " fill="#D7DCDC" transform="translate(51,47)"/>
<path d="M0 0 C0.33 0 0.66 0 1 0 C1.33 12.87 1.66 25.74 2 39 C0.35 38.67 -1.3 38.34 -3 38 C-2.01 37.505 -2.01 37.505 -1 37 C-1.00785522 35.37203491 -1.00785522 35.37203491 -1.01586914 33.71118164 C-1.03391836 29.69882018 -1.04543171 25.68646233 -1.05493164 21.67407227 C-1.05997204 19.93480832 -1.0668043 18.19554864 -1.07543945 16.45629883 C-1.08751792 13.96174063 -1.09323108 11.46723827 -1.09765625 8.97265625 C-1.10281754 8.19036148 -1.10797882 7.40806671 -1.11329651 6.60206604 C-1.11349226 4.73432886 -1.06199694 2.86670796 -1 1 C-0.67 0.67 -0.34 0.34 0 0 Z " fill="#5D6260" transform="translate(128,206)"/>
<path d="M0 0 C-0.99012085 0.55929199 -0.99012085 0.55929199 -2.00024414 1.12988281 C-5.02109624 2.83641134 -8.04179926 4.54320357 -11.0625 6.25 C-12.10083984 6.83652344 -13.13917969 7.42304687 -14.20898438 8.02734375 C-15.22412109 8.60097656 -16.23925781 9.17460938 -17.28515625 9.765625 C-18.27330322 10.32282227 -19.2614502 10.88001953 -20.27954102 11.45410156 C-22.54329954 12.74048037 -24.78832381 14.05294156 -27.03125 15.375 C-30.10172281 17.05567985 -32.53567772 17.66201734 -36 18 C-32.7893927 14.56403276 -29.07331459 12.58471374 -25 10.3125 C-24.27554688 9.89677734 -23.55109375 9.48105469 -22.8046875 9.05273438 C-22.10601562 8.66021484 -21.40734375 8.26769531 -20.6875 7.86328125 C-20.05199219 7.50532471 -19.41648438 7.14736816 -18.76171875 6.77856445 C-17 6 -17 6 -14 6 C-14 5.34 -14 4.68 -14 4 C-12.39125 3.319375 -12.39125 3.319375 -10.75 2.625 C-8.6710887 1.74481578 -6.72669587 0.84816437 -4.75 -0.25 C-3 -1 -3 -1 0 0 Z " fill="#CCC7B5" transform="translate(192,89)"/>
<path d="M0 0 C0.99 0.495 0.99 0.495 2 1 C2.92273836 14.34675129 3.12242557 27.62359426 3 41 C2.67 41 2.34 41 2 41 C0.22552956 27.2795411 -0.25546702 13.82862634 0 0 Z " fill="#547481" transform="translate(27,118)"/>
<path d="M0 0 C0.66 0.33 1.32 0.66 2 1 C1.34 1.66 0.68 2.32 0 3 C0.66 3.66 1.32 4.32 2 5 C-1.44069624 7.29379749 -2.72290301 8 -7 8 C-7 8.66 -7 9.32 -7 10 C-9.64 10.99 -12.28 11.98 -15 13 C-15 11.68 -15 10.36 -15 9 C-13.65478516 7.70385742 -13.65478516 7.70385742 -11.7890625 6.60546875 C-11.12132812 6.20779297 -10.45359375 5.81011719 -9.765625 5.40039062 C-9.05921875 5.00013672 -8.3528125 4.59988281 -7.625 4.1875 C-6.57699219 3.55811523 -6.57699219 3.55811523 -5.5078125 2.91601562 C-3.7136756 1.86886072 -1.85972369 0.92568269 0 0 Z " fill="#ECEEED" transform="translate(185,85)"/>
<path d="M0 0 C-0.66 0 -1.32 0 -2 0 C-2 0.66 -2 1.32 -2 2 C-3.62249941 2.83819158 -5.24808497 3.6704116 -6.875 4.5 C-7.77992188 4.9640625 -8.68484375 5.428125 -9.6171875 5.90625 C-12 7 -12 7 -14 7 C-14 7.66 -14 8.32 -14 9 C-17.83887763 10.48320272 -20.06204091 11.22419163 -24 10 C-21.2549092 8.34587239 -18.5031388 6.70319166 -15.75 5.0625 C-14.97269531 4.59392578 -14.19539062 4.12535156 -13.39453125 3.64257812 C-12.64042969 3.19462891 -11.88632813 2.74667969 -11.109375 2.28515625 C-10.41811523 1.87144775 -9.72685547 1.45773926 -9.01464844 1.03149414 C-5.51731592 -0.75912993 -3.79241672 -1.26413891 0 0 Z " fill="#B4B4AA" transform="translate(161,107)"/>
<path d="M0 0 C2 1 2 1 3 3 C0.41909233 4.31746333 -2.16450458 5.62909617 -4.75 6.9375 C-5.47960937 7.31068359 -6.20921875 7.68386719 -6.9609375 8.06835938 C-7.66992188 8.42607422 -8.37890625 8.78378906 -9.109375 9.15234375 C-9.75874023 9.48226318 -10.40810547 9.81218262 -11.07714844 10.15209961 C-13.03293079 11.01452116 -14.91540694 11.54374179 -17 12 C-16.63366104 9.55720702 -16.44070247 8.34230598 -14.44946289 6.7956543 C-13.7971167 6.47508057 -13.14477051 6.15450684 -12.47265625 5.82421875 C-11.76302734 5.47166016 -11.05339844 5.11910156 -10.32226562 4.75585938 C-9.57654297 4.40330078 -8.83082031 4.05074219 -8.0625 3.6875 C-7.32064453 3.31560547 -6.57878906 2.94371094 -5.81445312 2.56054688 C-3.91036209 1.63353247 -1.95738229 0.80843858 0 0 Z " fill="#DEDEDE" transform="translate(87,29)"/>
<path d="M0 0 C8.62153594 1.16902182 14.90453514 5.28431238 22 10 C18.54799282 11.15066906 17.45094647 10.64036109 14.25 9.1640625 C9.38903553 6.64918852 4.60920258 3.95170608 0 1 C0 0.67 0 0.34 0 0 Z " fill="#98A9AE" transform="translate(95,106)"/>
<path d="M0 0 C0.33 0 0.66 0 1 0 C1.33 3.96 1.66 7.92 2 12 C2.33 12 2.66 12 3 12 C2.67 17.94 2.34 23.88 2 30 C1.01 29.34 0.02 28.68 -1 28 C-1.2487793 25.20263672 -1.2487793 25.20263672 -1.07421875 21.6796875 C-1.01943359 20.42285156 -0.96464844 19.16601562 -0.90820312 17.87109375 C-0.83496498 16.53904434 -0.76139294 15.20701325 -0.6875 13.875 C-0.62424797 12.53522175 -0.56238166 11.19537731 -0.50195312 9.85546875 C-0.34828831 6.5694058 -0.18037667 3.28468758 0 0 Z " fill="#83765E" transform="translate(227,111)"/>
<path d="M0 0 C0.33 0 0.66 0 1 0 C1 3.96 1 7.92 1 12 C0.01 12.33 -0.98 12.66 -2 13 C-4.91796875 11.34765625 -4.91796875 11.34765625 -8.1875 9.0625 C-8.74630859 8.67642578 -9.30511719 8.29035156 -9.88085938 7.89257812 C-11.26031198 6.93757247 -12.63102056 5.96995907 -14 5 C-13.67 4.34 -13.34 3.68 -13 3 C-8.1962523 4.65128827 -4.24818148 7.26388311 0 10 C0 6.7 0 3.4 0 0 Z " fill="#476671" transform="translate(58,184)"/>
<path d="M0 0 C-1.61663009 0.92870239 -3.23476392 1.85486201 -4.859375 2.76953125 C-6.36519714 3.6351042 -7.85359684 4.53134971 -9.328125 5.44921875 C-10.10671875 5.91972656 -10.8853125 6.39023437 -11.6875 6.875 C-12.41324219 7.32617188 -13.13898438 7.77734375 -13.88671875 8.2421875 C-16 9 -16 9 -18.26953125 8.1328125 C-18.84058594 7.75898438 -19.41164063 7.38515625 -20 7 C-17.42362412 5.63092584 -14.84031896 4.27971545 -12.25 2.9375 C-11.52039063 2.54755859 -10.79078125 2.15761719 -10.0390625 1.75585938 C-9.33007812 1.39169922 -8.62109375 1.02753906 -7.890625 0.65234375 C-7.24125977 0.31195068 -6.59189453 -0.02844238 -5.92285156 -0.37915039 C-3.58008982 -1.13558044 -2.29543427 -0.78821819 0 0 Z " fill="#E6E6E6" transform="translate(126,13)"/>
<path d="M0 0 C0.66 0.33 1.32 0.66 2 1 C0.53403275 4.9429464 -1.37308275 6.01834588 -5.125 7.75 C-6.49011719 8.39195313 -6.49011719 8.39195313 -7.8828125 9.046875 C-8.58148438 9.36140625 -9.28015625 9.6759375 -10 10 C-10 8.68 -10 7.36 -10 6 C-7.8828125 4.26171875 -7.8828125 4.26171875 -5.125 2.6875 C-4.22007812 2.15511719 -3.31515625 1.62273437 -2.3828125 1.07421875 C-1.59648437 0.71972656 -0.81015625 0.36523438 0 0 Z " fill="#E4EBEB" transform="translate(149,106)"/>
<path d="M0 0 C6.6613344 1.03312362 11.51713579 3.08580266 17 7 C13.4477704 8.18407653 12.21520541 7.48730675 8.91796875 5.96875 C5.87104082 4.42977214 2.93757828 2.73856674 0 1 C0 0.67 0 0.34 0 0 Z " fill="#9EB4BB" transform="translate(83,99)"/>
<path d="M0 0 C4.49014624 1.49671541 8.47848764 3.83368341 12 7 C12 7.66 12 8.32 12 9 C8.50155614 8.36610765 6.15913124 6.94822306 3.25 4.9375 C2.45078125 4.38964844 1.6515625 3.84179688 0.828125 3.27734375 C0.22484375 2.85582031 -0.3784375 2.43429688 -1 2 C-0.67 1.34 -0.34 0.68 0 0 Z " fill="#4B6975" transform="translate(33,179)"/>
<path d="M0 0 C-1.70192385 0.9902653 -3.41188011 1.96673206 -5.125 2.9375 C-6.07632813 3.48277344 -7.02765625 4.02804688 -8.0078125 4.58984375 C-11.06256432 6.02948527 -13.66134387 6.60867384 -17 7 C-12.94927756 2.23444418 -6.1930752 -2.0643584 0 0 Z " fill="#C5C3B8" transform="translate(173,100)"/>
<path d="M0 0 C-1.70192385 0.9902653 -3.41188011 1.96673206 -5.125 2.9375 C-6.07632813 3.48277344 -7.02765625 4.02804688 -8.0078125 4.58984375 C-11.06256432 6.02948527 -13.66134387 6.60867384 -17 7 C-12.94927756 2.23444418 -6.1930752 -2.0643584 0 0 Z " fill="#DBD5C3" transform="translate(204,82)"/>
<path d="M0 0 C4.62 2.31 9.24 4.62 14 7 C14 7.33 14 7.66 14 8 C8.74721485 8.65659814 5.8475921 7.07349844 1.5390625 4.38671875 C1.03117187 3.92910156 0.52328125 3.47148438 0 3 C0 2.01 0 1.02 0 0 Z " fill="#ADD8E9" transform="translate(23,62)"/>
<path d="M0 0 C0.66 0.33 1.32 0.66 2 1 C-1.3763489 4.77356642 -3.95900824 7.013719 -9 8 C-9.99 7.34 -10.98 6.68 -12 6 C-10.04669132 4.96958487 -8.08718472 3.9509107 -6.125 2.9375 C-5.03445312 2.36902344 -3.94390625 1.80054688 -2.8203125 1.21484375 C-1.42425781 0.61349609 -1.42425781 0.61349609 0 0 Z " fill="#D1D3D3" transform="translate(51,47)"/>
<path d="M0 0 C0.66 0.33 1.32 0.66 2 1 C0.55369928 5.57995227 0.55369928 5.57995227 -1.8125 7.375 C-4.5280149 8.1508614 -6.30798849 7.74778098 -9 7 C-6.3765992 4.08511023 -3.28183606 2.11496102 0 0 Z " fill="#928975" transform="translate(142,116)"/>
<path d="M0 0 C6.43082787 1.28616557 11.40420264 3.60625252 17 7 C13.4477704 8.18407653 12.21520541 7.48730675 8.91796875 5.96875 C5.87104082 4.42977214 2.93757828 2.73856674 0 1 C0 0.67 0 0.34 0 0 Z " fill="#A3C3CF" transform="translate(59,85)"/>
<path d="M0 0 C6.30719307 0.92065781 9.91921368 1.9977458 14 7 C13.01 7.495 13.01 7.495 12 8 C9.1796875 6.6015625 9.1796875 6.6015625 5.875 4.625 C4.77929688 3.97789063 3.68359375 3.33078125 2.5546875 2.6640625 C1.71164063 2.11492187 0.86859375 1.56578125 0 1 C0 0.67 0 0.34 0 0 Z " fill="#8D9B9E" transform="translate(112,116)"/>
<path d="M0 0 C5.76832116 1.2143834 10.00186731 2.87616707 15 6 C11.41282801 7.195724 10.11477791 6.43953627 6.78515625 4.8984375 C4.43592636 3.71611174 2.18870129 2.45913419 0 1 C0 0.67 0 0.34 0 0 Z " fill="#A7CAD8" transform="translate(49,79)"/>
<path d="M0 0 C2.475 0.99 2.475 0.99 5 2 C4 5 4 5 2.125 6.25 C0 7 0 7 -3 6 C-2.01 4.02 -1.02 2.04 0 0 Z " fill="#F6F6F4" transform="translate(226,59)"/>
<path d="M0 0 C-2.52956528 3.0916909 -5.22454612 3.90931332 -9 5 C-8.8125 3.125 -8.8125 3.125 -8 1 C-4.70594381 -0.82039948 -3.63772813 -1.21257604 0 0 Z " fill="#D6D7D7" transform="translate(79,36)"/>
<path d="M0 0 C0.33 0 0.66 0 1 0 C1 3.96 1 7.92 1 12 C0.01 12.33 -0.98 12.66 -2 13 C-2.99 12.34 -3.98 11.68 -5 11 C-5 10.34 -5 9.68 -5 9 C-2.525 9.495 -2.525 9.495 0 10 C0 6.7 0 3.4 0 0 Z " fill="#3B535D" transform="translate(58,184)"/>
<path d="M0 0 C0.66 0.33 1.32 0.66 2 1 C2 1.99 2 2.98 2 4 C-3.41538462 7.07692308 -3.41538462 7.07692308 -6.375 6.6875 C-6.91125 6.460625 -7.4475 6.23375 -8 6 C-6.20963542 5.0234375 -4.41927083 4.046875 -2.62890625 3.0703125 C-0.83381685 2.08589976 -0.83381685 2.08589976 0 0 Z " fill="#E8E0CA" transform="translate(231,61)"/>
<path d="M0 0 C5.75 1.875 5.75 1.875 8 3 C8 3.66 8 4.32 8 5 C5.23723823 4.47731534 2.6739124 3.89130413 0 3 C0 2.01 0 1.02 0 0 Z " fill="#E3E4E4" transform="translate(196,44)"/>
<path d="M0 0 C0.66 0.33 1.32 0.66 2 1 C1.34 1.66 0.68 2.32 0 3 C0.66 3.66 1.32 4.32 2 5 C-0.375 6.5625 -0.375 6.5625 -3 8 C-3.66 7.67 -4.32 7.34 -5 7 C-3.75023244 3.34683329 -3.32901247 2.21934164 0 0 Z " fill="#E2E2DD" transform="translate(185,85)"/>
<path d="M0 0 C0.94875 0.350625 1.8975 0.70125 2.875 1.0625 C2.875 2.0525 2.875 3.0425 2.875 4.0625 C-2.875 2.3125 -2.875 2.3125 -5.125 0.0625 C-3.125 -0.9375 -3.125 -0.9375 0 0 Z " fill="#D5D6D6" transform="translate(207.125,48.9375)"/>
<path d="M0 0 C0.94875 0.350625 1.8975 0.70125 2.875 1.0625 C2.875 2.0525 2.875 3.0425 2.875 4.0625 C-2.875 2.3125 -2.875 2.3125 -5.125 0.0625 C-3.125 -0.9375 -3.125 -0.9375 0 0 Z " fill="#D3D4D4" transform="translate(179.125,34.9375)"/>
<path d="M0 0 C-0.33 0.99 -0.66 1.98 -1 3 C-2.84765625 3.73046875 -2.84765625 3.73046875 -5.0625 4.1875 C-5.79597656 4.34605469 -6.52945313 4.50460938 -7.28515625 4.66796875 C-8.13400391 4.83232422 -8.13400391 4.83232422 -9 5 C-6.45523312 2.20075644 -3.92372883 0 0 0 Z " fill="#D0CEC1" transform="translate(177,95)"/>
<path d="M0 0 C0.99 0 1.98 0 3 0 C3 0.99 3 1.98 3 3 C1.35 3.66 -0.3 4.32 -2 5 C-1.34 3.35 -0.68 1.7 0 0 Z " fill="#8C7F67" transform="translate(144,116)"/>
</svg>
